<?xml version="1.0" encoding="UTF-8" standalone="no"?>
<!-- Created with Inkscape (http://www.inkscape.org/) -->

<svg
   xmlns:dc="http://purl.org/dc/elements/1.1/"
   xmlns:cc="http://creativecommons.org/ns#"
   xmlns:rdf="http://www.w3.org/1999/02/22-rdf-syntax-ns#"
   xmlns:svg="http://www.w3.org/2000/svg"
   xmlns="http://www.w3.org/2000/svg"
   xmlns:sodipodi="http://sodipodi.sourceforge.net/DTD/sodipodi-0.dtd"
   xmlns:inkscape="http://www.inkscape.org/namespaces/inkscape"
   width="297mm"
   height="210mm"
   viewBox="0 0 1052.3622 744.09448"
   id="svg3467"
   version="1.1"
   inkscape:version="0.91 r13725"
   inkscape:export-filename="/home/marouano/Projects/website/logo2.png"
   inkscape:export-xdpi="90"
   inkscape:export-ydpi="90"
   sodipodi:docname="logo2.svg">
  <defs
     id="defs3469" />
  <sodipodi:namedview
     id="base"
     pagecolor="#ffffff"
     bordercolor="#666666"
     borderopacity="1.0"
     inkscape:pageopacity="0.0"
     inkscape:pageshadow="2"
     inkscape:zoom="1.4250685"
     inkscape:cx="278.88101"
     inkscape:cy="591.44141"
     inkscape:document-units="px"
     inkscape:current-layer="layer1"
     showgrid="false"
     showguides="true"
     inkscape:guide-bbox="true"
     inkscape:window-width="1680"
     inkscape:window-height="992"
     inkscape:window-x="0"
     inkscape:window-y="0"
     inkscape:window-maximized="1">
    <sodipodi:guide
       position="289.81063,631.54857"
       orientation="0,1"
       id="guide3585" />
  </sodipodi:namedview>
  <metadata
     id="metadata3472">
    <rdf:RDF>
      <cc:Work
         rdf:about="">
        <dc:format>image/svg+xml</dc:format>
        <dc:type
           rdf:resource="http://purl.org/dc/dcmitype/StillImage" />
        <dc:title></dc:title>
      </cc:Work>
    </rdf:RDF>
  </metadata>
  <g
     inkscape:label="Layer 1"
     inkscape:groupmode="layer"
     id="layer1"
     transform="translate(0,-308.26772)">
    <text
       xml:space="preserve"
       style="font-style:normal;font-weight:normal;font-size:50px;line-height:125%;font-family:sans-serif;letter-spacing:0px;word-spacing:0px;fill:#000000;fill-opacity:1;stroke:none;stroke-width:1px;stroke-linecap:butt;stroke-linejoin:miter;stroke-opacity:1"
       x="298.70724"
       y="535.33075"
       id="text3475"
       sodipodi:linespacing="125%"><tspan
         sodipodi:role="line"
         id="tspan3477"
         x="298.70724"
         y="535.33075" /></text>
    <path
       style="fill:#241c1c"
       id="path3559"
       d="m 237.74466,443.67241 c 1.9544,-1.41161 3.92404,-2.77728 6.04109,-3.93463 1.46968,-0.81489 3.07475,-1.24582 4.73067,-1.44847 2.08409,-0.0783 4.16564,-0.13423 6.2484,-0.2617 5.11142,-0.28952 1.75227,-0.12282 13.05749,-0.0985 0.78553,0.002 1.61997,0.0698 2.39573,0.19679 0.74328,0.12168 1.47527,0.30436 2.21309,0.45567 2.36186,0.64329 4.71968,1.273 7.13524,1.68366 2.32146,0.44379 4.61334,1.00736 6.83747,1.80898 2.34422,0.89004 4.6058,2.01122 6.71109,3.37372 2.09902,1.30353 3.99733,2.88802 5.81493,4.55318 1.67418,1.4106 2.87591,3.22424 3.97723,5.09042 0.96496,1.70751 1.77967,3.49779 2.28923,5.3933 0.4747,1.67346 0.48261,3.38362 0.35817,5.10391 -0.3377,2.54185 -0.93986,5.03804 -1.59681,7.51345 -0.45866,1.8611 -1.0741,3.64624 -1.9707,5.33965 -0.84617,1.52639 -2.01437,2.81842 -3.31209,3.9699 -1.65343,1.34271 -3.67964,1.99447 -5.70859,2.52425 -2.51143,0.56027 -5.05474,0.97003 -7.59406,1.38161 -2.53721,0.44799 -5.05926,0.97101 -7.59594,1.4237 -1.97739,0.46076 -4.00484,0.58374 -6.01027,0.85902 -2.21862,0.44933 -4.34738,1.25159 -6.45649,2.05822 -0.70218,0.2436 -1.38236,0.55148 -2.09165,0.7742 -0.15731,-0.26651 -0.57981,0.16352 -0.72466,0.33171 -0.549,0.34432 -0.17079,-0.99081 -0.13617,-1.29906 0.0187,-0.16634 0.27639,-0.12989 0.35205,-0.13428 -3.44789,0.005 -6.89578,0.01 -10.34368,0.0145 2.5003,-0.27068 4.98232,-0.65678 7.46279,-1.06943 4.42562,-0.89203 8.83503,-1.85581 13.28692,-2.61199 2.71213,-0.46477 5.4536,-0.6879 8.20086,-0.78205 5.48405,-0.0566 10.98582,-0.28628 16.44946,0.24862 1.50131,0.29884 3.01447,0.52325 4.45075,1.06781 1.15576,0.37392 2.22298,0.99309 3.13275,1.79253 1.00051,0.61032 1.52574,1.62468 2.01758,2.64659 0.68665,1.40211 1.09408,2.88998 1.35309,4.4226 0.26483,1.69725 0.28945,3.41891 0.32211,5.1327 0.005,1.78239 -0.50917,3.44679 -1.15078,5.08729 -1.09824,2.41894 -2.47103,4.70316 -3.85898,6.96426 -1.58673,2.68884 -3.38916,5.22808 -5.37085,7.63725 -1.8058,2.18369 -3.91654,4.08041 -6.04456,5.94019 -2.44841,2.13097 -5.1562,3.93935 -8.02035,5.45744 -2.21078,1.11937 -4.60009,1.74361 -7.03758,2.10897 -2.34102,0.2074 -4.68537,0.39154 -7.02948,0.5679 -5.5134,0.48149 -11.0435,0.41946 -16.50034,-0.3559 -2.00546,-0.28139 -4.0281,-0.24007 -6.00912,-0.67752 -1.86433,-0.27402 -3.46435,-1.30313 -5.11916,-2.13717 -1.58677,-0.85255 -3.32587,-1.34761 -4.9451,-2.12719 -1.22709,-0.52559 -2.2075,-1.42361 -3.16361,-2.32891 -0.67085,-0.70176 -1.48449,-1.2972 -2.0279,-2.10785 -0.33899,-0.5567 -0.17644,-1.091 -0.0344,-1.67949 0,0 10.79378,0.28675 10.79378,0.28675 l 0,0 c -0.13141,0.39896 -0.19697,0.36049 0.0491,0.67293 0.63385,0.66071 1.27962,1.31036 1.95385,1.93013 0.93682,0.81216 1.93189,1.52995 3.08975,2.00026 1.65237,0.70161 3.34466,1.31703 4.92868,2.17143 1.62492,0.81108 3.23134,1.64176 5.0706,1.8354 1.98962,0.28079 4.00592,0.31221 5.99236,0.63145 0.95938,0.12366 1.91297,0.2286 2.87979,0.27396 0.31367,0.0147 1.25552,0.0291 0.94152,0.0317 -10.87277,0.0879 -12.5721,0.18728 -8.44161,-0.015 2.34626,-0.14871 4.68285,-0.40094 7.03149,-0.50683 2.43375,-0.24896 4.82589,-0.76437 7.08068,-1.74206 2.88002,-1.35314 5.54428,-3.12308 7.96233,-5.19335 2.1008,-1.82974 4.21477,-3.66626 6.04553,-5.77379 1.99688,-2.3453 3.82361,-4.81605 5.37802,-7.48086 1.34369,-2.19898 2.62894,-4.44529 3.71132,-6.78594 0.59856,-1.50526 1.10336,-3.03022 1.10999,-4.67104 -0.0128,-1.65522 -0.0436,-3.317 -0.30455,-4.9553 -0.27697,-1.42931 -0.71399,-2.81259 -1.4078,-4.09949 -0.50409,-0.89949 -1.11899,-1.61929 -1.99592,-2.18162 -0.93994,-0.63636 -1.96955,-1.11087 -3.06243,-1.42269 -1.4325,-0.38418 -2.89146,-0.6733 -4.36541,-0.84348 -3.76986,-0.35629 -8.81672,-0.12329 7.7608,-0.18444 0.33367,-10e-4 -0.66734,-0.002 -1.00102,-0.003 -1.09447,-10e-4 -0.96635,3e-5 -2.07363,0.007 -2.80539,0.0446 -5.61024,0.18977 -8.38795,0.61042 -4.45856,0.67938 -8.87386,1.59217 -13.26878,2.60192 -2.36385,0.42667 -4.72406,0.89959 -7.11491,1.14376 -3.70209,0.0428 -7.40409,0.0941 -11.10626,0.12851 -0.0775,7.2e-4 -0.41432,0.003 -0.43916,-0.16088 -0.0684,-0.45044 -0.056,-0.91044 -0.0475,-1.36596 0.002,-0.13292 0.1479,-0.0748 0.19964,-0.067 0.25824,0.18969 0.65668,-0.29307 0.75764,-0.51129 0.77826,-0.0123 1.48857,-0.30199 2.21865,-0.55157 2.18097,-0.75751 4.33386,-1.59692 6.54985,-2.25179 1.98993,-0.36369 4.00887,-0.42198 5.99115,-0.83306 2.5544,-0.5005 5.13466,-0.87082 7.676,-1.44419 2.51053,-0.3803 5.01385,-0.82463 7.50414,-1.31702 1.96241,-0.39518 3.91711,-0.93891 5.61893,-2.02805 1.2796,-1.00983 2.39615,-2.18945 3.26084,-3.57989 0.92887,-1.59429 1.58295,-3.29262 2.0454,-5.08047 0.67491,-2.3964 1.29994,-4.81057 1.55739,-7.29473 0.0796,-1.60581 0.0216,-3.19561 -0.40645,-4.75558 -0.48632,-1.79564 -1.26853,-3.49758 -2.21731,-5.09607 -1.09627,-1.76992 -2.32676,-3.43633 -3.9385,-4.77941 -1.80552,-1.6017 -3.68052,-3.12775 -5.75991,-4.36649 -2.13289,-1.2597 -4.37985,-2.33831 -6.73025,-3.13014 -2.21524,-0.71306 -4.48411,-1.23896 -6.77243,-1.66053 -2.41479,-0.48103 -4.77959,-1.15501 -7.18181,-1.6888 -1.11308,-0.20757 -2.20259,-0.38356 -3.33634,-0.4326 -0.40184,-0.0174 -1.60863,-0.021 -1.20642,-0.0237 10.42173,-0.0701 12.20865,-0.18176 7.94668,0.0355 -2.03739,0.12492 -4.0677,0.31889 -6.11145,0.26165 -1.64414,0.0628 -3.2775,0.30381 -4.78067,1.01493 -2.11627,1.02573 -4.07912,2.27174 -5.89669,3.76871 0,0 -10.73553,-0.99837 -10.73553,-0.99837 z"
       inkscape:connector-curvature="0" />
    <path
       style="fill:#800000"
       id="path3565"
       d="m 347.96214,461.12541 c -4.05725,0.13645 0.95088,-0.0405 9.06387,0.0595 0.30137,0.004 -0.60155,0.0407 -0.90127,0.0724 -0.93044,0.0983 -1.79053,0.30037 -2.68566,0.56411 -1.94139,0.67836 -3.77442,1.62462 -5.61081,2.5413 -1.47856,0.75986 -2.89583,1.63291 -4.31779,2.49255 -1.21365,0.79223 -2.28757,1.76825 -3.30997,2.78938 -1.32749,1.29921 -2.53172,2.71285 -3.70001,4.1544 -0.93327,1.15101 -1.76192,2.38175 -2.41656,3.71133 -0.52849,1.18644 -0.66635,2.43795 -0.56028,3.71737 0.16802,1.20493 0.66883,2.19055 1.41936,3.12531 0.76099,0.97992 1.73672,1.69119 2.81646,2.27605 1.04058,0.48045 2.18887,0.78516 3.31373,1.02535 0.99656,0.182 2.0119,0.19064 3.02145,0.20135 6.46253,-0.003 -13.86578,-0.101 -8.09623,0.003 0.96634,-0.16679 1.95003,-0.26334 2.908,-0.4725 1.26981,-0.39367 2.43172,-1.03205 3.57662,-1.69418 1.04089,-0.61038 2.11067,-1.17074 3.11573,-1.83988 1.03352,-0.67539 1.79264,-1.60395 2.45697,-2.62723 0.47426,-0.81574 0.90644,-1.65483 1.36994,-2.47635 0.80268,-1.21082 1.41456,-2.51242 1.89001,-3.88206 0.37986,-1.23474 0.56385,-2.53042 0.49312,-3.82042 -0.0807,-1.14561 -0.30457,-2.25865 -0.60842,-3.36302 -0.19566,-0.76029 -0.28586,-1.53209 -0.47222,-2.29313 -0.11012,-0.87897 -0.4448,-1.69754 -0.63954,-2.55649 -0.22727,-0.49738 -0.42404,-1.00755 -0.65652,-1.50296 -0.002,-0.0557 -0.10769,-0.18586 -0.11245,-0.19097 13.45815,-0.26055 10.74367,-3.40083 10.85615,1.09374 0.0203,0.8121 0.11982,1.62872 0.17649,2.4387 0.23048,2.30595 0.64712,4.5843 1.07185,6.86048 0.38757,2.22379 0.78967,4.44779 1.27705,6.65223 0.32726,1.91724 0.90423,3.75992 1.56976,5.5808 0.52619,0.94258 0.74853,2.14859 1.52063,2.93467 0.31721,0.46752 0.84578,0.71796 1.28487,1.06154 0.45207,0.15869 0.9193,0.12038 1.3902,0.10193 3.64565,-0.049 7.85889,0.0347 -9.82715,0.0136 -0.10029,-1.2e-4 0.20051,-0.0144 0.29907,-0.033 0.25069,-0.0472 0.49326,-0.13043 0.73955,-0.19691 1.59887,-0.26565 3.10469,-0.90657 4.62422,-1.44812 1.67425,-0.5658 3.28333,-1.27097 4.85301,-2.07773 1.4118,-0.66824 2.63752,-1.65384 3.79167,-2.69268 1.31224,-1.20913 2.1103,-2.80732 2.78143,-4.43285 0.86161,-2.17285 1.2951,-4.47107 1.74695,-6.75347 0.46182,-2.02546 0.61907,-4.06479 0.40655,-6.12826 -0.197,-1.83325 -0.67839,-3.6099 -1.37325,-5.31274 -0.83302,-1.83836 -1.69646,-3.66867 -2.70504,-5.41777 -1.30469,-2.12222 -3.02959,-3.9136 -4.81957,-5.62469 -1.6516,-1.51878 -3.5261,-2.73725 -5.44272,-3.88504 -1.1969,-0.59363 -2.34099,-1.30676 -3.61404,-1.72757 -1.17629,-0.32435 -2.33526,-0.70138 -3.50979,-1.04486 -0.28278,-0.064 -0.56349,-0.13798 -0.84833,-0.19208 -1.01414,-0.19259 -2.08458,-0.33368 -3.11666,-0.36282 -0.41683,-0.0118 -1.66776,0.0174 -1.25079,0.0217 3.06244,0.0315 6.12506,0.0399 9.18759,0.0598 -2.43868,0.2225 -4.83845,0.74275 -7.19981,1.37702 -1.63725,0.38897 -3.24629,0.86929 -4.82786,1.44205 -2.43899,0.84679 -4.88665,1.66163 -7.30822,2.55947 -2.26012,0.81368 -4.45688,1.77116 -6.57066,2.91015 -1.57594,0.74583 -2.85006,1.89122 -4.09371,3.08553 -1.58077,1.64378 -3.11008,3.3595 -4.42984,5.22195 -1.1402,1.7154 -1.96377,3.60308 -2.7922,5.4801 -0.93628,1.99929 -1.8206,4.01275 -2.55546,6.09485 -0.85829,2.5087 -1.03513,5.15973 -1.16422,7.78652 -0.10126,2.6763 -0.13766,5.3528 0.0977,8.02193 0.0961,1.85662 0.43917,3.67777 0.79905,5.49646 0.41817,2.00415 0.96427,3.96922 1.65598,5.89549 0.77347,2.15608 1.90198,4.15789 3.1206,6.08929 1.25735,2.05612 2.69196,3.97434 4.33005,5.73879 1.76408,1.79971 4.00283,2.95319 6.32824,3.8482 2.29757,0.82621 4.66666,1.42574 7.08459,1.75774 2.02791,0.22925 4.0715,0.23171 6.10949,0.23839 -17.19276,0.0811 -11.01466,0.35883 -7.29932,-0.32288 1.21545,-0.22301 2.4195,-0.50302 3.62442,-0.77573 2.20013,-0.50606 4.35463,-1.18629 6.53347,-1.774 2.36345,-0.63303 4.67308,-1.438 6.96282,-2.29524 1.51158,-0.53965 2.9952,-1.14715 4.55331,-1.54053 2.11549,-0.60746 4.19227,-1.34487 6.28535,-2.02598 2.75285,-0.9656 5.60232,-1.59951 8.41459,-2.35826 2.11107,-0.56095 4.11825,-1.39905 6.03885,-2.4287 0.96937,-0.49964 1.89972,-1.05913 2.74545,-1.74806 0.64625,-0.58273 1.24673,-1.27502 1.47958,-2.12716 0,0 10.80293,0.25462 10.80293,0.25462 l 0,0 c -0.23592,1.07297 -0.8045,1.96092 -1.52236,2.788 -0.85198,0.80702 -1.77491,1.50672 -2.85386,1.992 -1.9883,1.03822 -3.97984,2.06526 -6.16394,2.6461 -2.80271,0.79644 -5.67646,1.33795 -8.42987,2.30605 -2.04957,0.67905 -4.09063,1.3796 -6.12456,2.10211 -1.75227,0.5111 0.44952,-0.10773 -1.32439,0.31611 -1.14249,0.27297 -2.19672,0.81387 -3.3293,1.11891 -2.30903,0.83058 -4.59798,1.72118 -6.96253,2.3889 -2.19123,0.59623 -4.37108,1.2294 -6.56362,1.81923 -6.74605,1.47213 -8.5402,2.06237 -17.42777,1.32815 -2.04138,-0.0274 -4.09041,-0.07 -6.10983,-0.40125 -2.41378,-0.44388 -4.78916,-1.09913 -7.06998,-2.01189 -2.37265,-1.06063 -4.63771,-2.34782 -6.39064,-4.31101 -1.63496,-1.83782 -3.0645,-3.83586 -4.3523,-5.93203 -1.2258,-2.01147 -2.36991,-4.08197 -3.14327,-6.31554 -0.69816,-1.97985 -1.28225,-3.99112 -1.70735,-6.04851 -0.37588,-1.86021 -0.7016,-3.72577 -0.75277,-5.62894 -0.16396,-2.71523 -0.11378,-5.43169 -0.0302,-8.14992 0.11941,-2.72547 0.28182,-5.47666 1.11721,-8.09463 0.72667,-2.10662 1.54785,-4.16893 2.51031,-6.18095 0.85088,-1.937 1.70789,-3.87714 2.83135,-5.67643 1.28863,-1.94506 2.87887,-3.67016 4.42502,-5.41195 1.21963,-1.30886 2.48782,-2.59908 4.10446,-3.41477 2.17922,-1.12729 4.36478,-2.23232 6.69276,-3.03365 2.38546,-0.89682 4.77796,-1.77046 7.19523,-2.57051 1.58588,-0.61965 3.18088,-1.22182 4.85998,-1.54314 2.40597,-0.64595 4.82824,-1.2235 7.29832,-1.57335 5.60188,-0.055 11.62001,-0.8118 17.17302,0.68309 1.20351,0.34207 2.40698,0.702 3.57697,1.14522 1.21871,0.5732 2.40298,1.22052 3.554,1.91956 1.9108,1.21149 3.73546,2.56097 5.3757,4.12478 1.82752,1.80018 3.56603,3.70852 4.88482,5.92332 1.01028,1.80648 1.92909,3.66677 2.75565,5.56449 0.69463,1.80503 1.16272,3.68407 1.35789,5.61195 0.2033,2.17035 0.0589,4.31738 -0.44175,6.44473 -0.47962,2.33622 -0.91181,4.69136 -1.72741,6.94144 -0.65794,1.75479 -1.43228,3.53179 -2.75848,4.89138 -1.12142,1.16427 -2.4161,2.21643 -3.81523,3.02252 -1.61823,0.77911 -3.18054,1.66154 -4.90888,2.19353 -1.50304,0.55605 -2.99959,1.13763 -4.51976,1.64081 -0.22067,0.0209 -0.97126,0.2482 -1.0238,0.24941 -3.37679,0.0776 -7.79857,0.47137 -11.63629,0.0824 -0.56104,-0.10681 -1.06745,-0.32029 -1.47655,-0.73297 -0.49696,-0.39215 -0.94763,-0.8098 -1.27341,-1.36513 -0.58725,-1.03015 -0.99868,-2.14733 -1.43638,-3.24648 -0.64444,-1.86916 -1.15701,-3.7697 -1.50823,-5.7182 -0.4755,-2.21776 -0.90102,-4.4471 -1.26004,-6.68676 -0.42108,-2.31321 -0.85184,-4.6257 -1.12805,-6.962 -0.65707,-6.34223 -1.20721,-4.08236 10.56884,-4.1286 0.0187,0.0913 0.0494,0.17933 0.0834,0.26672 0.20232,0.55812 0.43084,1.10729 0.60092,1.67632 0.21613,0.84916 0.4879,1.68357 0.64007,2.5484 0.18946,0.75716 0.27609,1.52895 0.45482,2.28865 0.27177,1.17909 0.49979,2.36117 0.57522,3.5723 0.0755,1.4256 -0.12447,2.86275 -0.52755,4.23212 -0.47559,1.41051 -1.01711,2.81424 -1.83638,4.06511 -0.44697,0.85759 -0.91052,1.69973 -1.40384,2.53188 -0.66284,1.13792 -1.411,2.23238 -2.46422,3.04645 -0.98074,0.78317 -2.08877,1.34243 -3.17298,1.96536 -1.17651,0.63904 -2.28274,1.42254 -3.55042,1.88144 -0.95975,0.46843 -1.89811,0.46983 -2.9249,0.69969 -0.60327,0.16608 -0.31736,0.13136 -0.91765,0.13148 -4.10624,8.5e-4 -8.25247,0.0954 -12.37353,-0.0276 -1.02057,-0.0547 -2.04233,-0.1486 -3.02757,-0.43818 -1.15172,-0.34118 -2.32656,-0.6557 -3.33231,-1.34058 -1.10513,-0.73031 -2.0765,-1.62059 -2.85582,-2.69883 -0.76971,-1.13086 -1.27439,-2.35902 -1.43525,-3.72851 -0.0979,-1.46413 0.0431,-2.89109 0.57949,-4.27183 0.64706,-1.42533 1.48447,-2.74164 2.4785,-3.95292 1.15041,-1.49056 2.39437,-2.90956 3.69902,-4.26676 1.02903,-1.07996 2.07767,-2.13958 3.27757,-3.03058 1.40492,-0.97377 2.97514,-1.70838 4.43306,-2.59994 1.84668,-0.93359 3.68617,-1.8889 5.59376,-2.69387 4.99969,-1.90138 10.60451,-1.28481 15.84056,-0.92432 0,0 -10.69503,1.55785 -10.69503,1.55785 z"
       inkscape:connector-curvature="0" />
    <path
       style="fill:#800000"
       id="path3567"
       d="m 408.85695,424.76862 c -0.0838,-1.02185 -0.23505,-2.03698 -0.40405,-3.04782 -0.0271,-0.15801 -0.054,-0.31618 -0.0891,-0.47258 10.85955,-0.34087 11.60017,-2.97448 10.53698,2.53693 -0.65954,2.82271 -1.29667,5.65131 -1.86213,8.49465 -0.54108,3.2755 -0.92052,6.57812 -1.17156,9.88824 -0.14701,3.11602 -0.26866,6.23094 -0.45395,9.34537 -0.13076,2.408 -0.14371,4.81665 -0.35058,7.21975 -0.19911,1.991 -0.28319,3.98979 -0.32984,5.98929 -0.0264,1.85551 -0.0228,3.7114 -0.0259,5.5671 0.023,2.07517 0.001,4.14436 -0.16001,6.21352 -0.18507,2.11447 -0.2605,4.23511 -0.30297,6.35642 -0.18532,2.04888 -0.37074,4.09511 -0.4613,6.15092 -0.0766,1.89359 -0.0635,3.78878 -0.0439,5.68328 0.009,1.01989 0.0331,2.03938 0.035,3.05932 0.007,0.64072 0.0199,1.28147 0.0182,1.92223 -0.0104,0.69043 -0.0143,1.38088 -0.004,2.07132 0.006,0.26979 0.0144,0.53955 0.0312,0.80888 0.008,0.0548 -0.002,0.10909 -0.004,0.16433 0.004,0.15506 -0.002,0.30956 -0.004,0.46451 -0.0916,0.46038 0.0796,0.82298 0.20197,1.25121 0.24448,0.84838 0.0561,1.71222 -0.0559,2.56529 -0.0967,0.66552 -0.14306,1.33697 -0.15238,2.00907 -0.0112,0.47451 -0.008,0.94912 -0.016,1.42372 -0.10926,0.71379 -0.29766,1.41075 -0.4092,2.12455 -0.056,0.41573 -0.0756,0.83467 -0.0682,1.25377 8e-4,0.0427 0.005,0.0855 0.0131,0.12734 -11.40869,0.28037 -10.94468,2.84961 -10.84511,-2.59146 0.0197,-1.3224 0.019,-2.64553 -0.007,-3.96784 -0.0128,-0.76209 -0.024,-1.52417 -0.0246,-2.28637 0.0922,-0.66151 -0.15349,-1.2563 -0.29821,-1.88691 -0.24031,-0.64358 -0.41101,-1.30247 -0.54544,-1.98093 -0.099,-0.37178 -0.042,-0.77088 -0.11778,-1.14448 -0.0368,-0.18116 -0.19593,-0.38089 -0.26329,-0.55369 -0.26145,-0.65493 -0.22075,-1.38894 -0.23191,-2.08181 -0.01,-0.95557 -0.0235,-1.91093 -0.0217,-2.86658 0.0271,-0.8961 -0.0536,-1.79516 0.0589,-2.68554 0.11304,-0.6367 0.27175,-1.2638 0.36518,-1.90383 0.0345,-0.59227 0.0643,-1.16665 0.20971,-1.7441 0.17908,-0.58797 0.27147,-1.19199 0.31371,-1.80363 -0.0199,-0.65254 0.16179,-1.26988 0.3359,-1.8905 0.11209,-0.4217 0.15835,-0.85591 0.17503,-1.29078 -0.0124,-0.67022 0.18423,-1.31592 0.32674,-1.96475 0.14065,-0.69632 0.17113,-1.40729 0.19311,-2.11528 -0.0599,-0.8298 0.1611,-1.63091 0.30649,-2.43965 0.11225,-0.56548 0.15697,-1.13897 0.18142,-1.71383 0.0228,-0.68158 -0.0302,-1.36403 0.0648,-2.04007 0.19435,-0.58329 0.32755,-1.16419 0.38915,-1.77657 0.0435,-0.55121 0.2794,-1.04999 0.44159,-1.56756 0.0328,-0.11426 0.0544,-0.23104 0.0708,-0.3486 -0.0517,3.74586 0.23917,-0.23429 10.8686,0.40394 0.1241,0.007 -0.002,0.24864 -0.003,0.37297 -10e-4,0.13183 -0.002,0.26366 -0.003,0.39549 -0.0702,1.18773 0.14223,2.36357 0.26735,3.54113 0.17107,1.19259 0.53318,2.33602 0.83711,3.49684 0.32531,1.00365 0.69754,1.99241 0.99071,3.0061 0.17893,0.8369 0.32959,1.69733 0.736,2.46069 0.29627,0.68405 0.55348,1.38032 0.81311,2.0793 0.3463,0.70097 0.58813,1.44973 0.86193,2.18187 0.38141,0.69606 0.75515,1.40283 1.18989,2.06812 0.30393,0.71338 0.74272,1.34036 1.13608,1.99825 0.44692,0.7491 0.99117,1.42855 1.41498,2.19433 0.38412,0.93708 0.81095,1.84045 1.36401,2.68967 0.4199,0.7044 0.8712,1.38334 1.26764,2.10271 0.36213,0.5515 0.66604,1.13035 1.01385,1.69134 0.39702,0.59442 0.71825,1.22525 1.172,1.78407 0.50183,0.43179 0.94082,0.93785 1.39905,1.43328 0.5147,0.44815 1.10043,0.82385 1.6405,1.25645 0.4423,0.34895 0.83875,0.7519 1.23982,1.1465 0.47313,0.031 0.74609,0.4626 1.17399,0.55975 0.48204,0.2793 0.98528,0.43725 1.54068,0.53849 0.61375,0.44197 1.39495,0.3272 2.06054,0.62868 0.37763,0.28929 0.87804,0.19703 1.29512,0.34309 0.42949,0.22922 0.20816,0.13312 0.66348,0.28949 0.95371,0.1236 1.8761,0.33848 2.81744,0.54315 0.77174,0.14208 1.55643,0.19192 2.34001,0.19463 0.11052,-6.8e-4 0.22103,-10e-4 0.33154,-0.002 0.41992,-0.002 0.31483,-0.002 0.74911,-0.004 0.13921,-4e-4 0.55682,-0.001 0.41761,-0.001 -3.25951,-4.7e-4 -13.03805,-5.4e-4 -9.77854,-1.9e-4 4.45731,0.10387 9.07804,-0.9046 13.40672,0.24062 0.58701,0.18824 1.21523,0.12023 1.81329,0.20953 0.39491,0.059 0.77963,0.17434 1.173,0.24285 1.07532,0.16298 2.16155,0.26311 3.24863,0.29823 0.60968,-0.0741 1.07183,0.25974 1.61618,0.48966 0.23899,0.097 0.53479,0.0666 0.79734,0.054 4.33729,-0.57552 -13.82859,0.0695 -10.01819,-0.0504 20.04929,3.19984 8.0529,1.3184 -0.0879,-8e-4 -0.0277,-0.004 0.0561,-0.002 0.0842,-0.003 13.16393,2.1301 15.05197,1.90148 -0.53087,1.53248 -0.22837,-0.005 -0.82558,-0.19564 -1.10446,-0.23289 -1.21746,-0.1182 -2.41189,-0.50002 -3.56538,-0.90634 -1.30741,-0.46036 -2.62749,-0.87204 -3.9525,-1.28249 -1.14558,-0.25611 -2.26512,-0.28404 -3.38283,-0.6524 -0.64892,-0.1865 -1.32392,-0.24811 -1.99669,-0.25102 -3.84636,0.0355 -8.80697,0.0111 9.40143,0.0127 -3.79179,0.006 -7.57405,-0.0764 -11.37303,-0.18261 -0.0607,-0.002 -0.63923,-0.23526 -0.75985,-0.26736 -0.0877,-0.008 -0.18233,0.0109 -0.26301,-0.0244 -0.10127,-0.0443 -0.16686,-0.14653 -0.2609,-0.20459 -0.35581,-0.21968 -0.81756,-0.22245 -1.21841,-0.28202 -0.25538,-0.15134 -1.04293,0.0755 -1.27173,-0.0483 -0.0886,-0.048 -0.13495,-0.14974 -0.20243,-0.22461 -0.19498,-0.0671 -0.37383,-0.23474 -0.57732,-0.2799 -0.13397,-0.0297 -0.28277,0.0635 -0.41139,0.0156 -0.0983,-0.0366 -0.16588,-0.12831 -0.24882,-0.19247 -0.41257,-0.19823 -0.79087,-0.33815 -1.23935,-0.34591 -0.69541,0.0419 -0.43828,0.11355 -0.97995,-0.33451 -0.64345,-0.092 -0.7291,-0.20157 -1.20062,-0.63258 -0.0398,-0.0393 -0.0659,-0.10133 -0.11934,-0.11781 -0.0426,-0.0131 -0.083,0.0343 -0.12688,0.0418 -0.29034,0.05 -0.36487,-0.15248 -0.56749,-0.32452 -0.21276,-0.28608 -0.37013,-0.67098 -0.62589,-0.93396 -0.56955,-0.58563 0.35484,0.6645 -0.34171,-0.33807 -0.5248,-0.40624 -0.85596,-1.15966 -1.12009,-1.77027 -0.11397,-0.71367 -0.50555,-1.28817 -0.81886,-1.91502 -0.29869,-0.70835 -0.67878,-1.37679 -1.02738,-2.06288 -0.32966,-0.55772 -0.536,-1.33375 -0.92468,-1.84183 -0.35165,-0.46494 -0.62674,-0.99133 -0.85387,-1.53069 -0.26525,-0.55391 -0.53004,-1.0917 -0.87563,-1.60327 -0.18245,-0.51018 -0.46451,-0.95145 -0.65711,-1.4576 -0.19793,-0.48555 -0.59788,-0.84157 -0.8309,-1.28192 -0.17579,-0.46387 -0.32448,-0.90218 -0.58355,-1.3304 -0.22193,-0.57234 -0.5219,-1.11001 -0.75447,-1.68189 -0.47463,-0.67061 -0.61908,-1.48047 -0.94216,-2.21601 -0.31085,-0.62452 -0.3508,-1.33409 -0.57276,-1.98185 -0.2841,-0.66465 -0.36906,-1.39308 -0.43523,-2.1069 -0.0452,-0.98455 -0.0329,-1.97154 -0.0341,-2.95709 -0.1471,-0.98857 -0.29456,-1.97571 -0.41236,-2.9685 -0.0677,-0.74748 -0.31462,-1.46183 -0.46239,-2.19821 -0.10352,-0.59314 -0.12653,-1.19365 -0.146,-1.79387 0.0608,-0.49358 -0.0508,-0.87523 -0.22277,-1.32427 -0.16588,-0.53088 -0.21784,-1.08101 -0.25749,-1.63248 -0.0286,-0.39233 -0.0244,-0.78613 -0.0264,-1.17922 0.006,-0.3046 -0.008,-0.60962 -6.3e-4,-0.91413 -0.005,-0.22951 -0.004,-0.45857 -0.003,-0.68798 -0.008,-0.20136 7e-4,-0.40234 -0.002,-0.60374 -0.003,-0.21454 -0.002,-0.42943 0.005,-0.64397 0.003,-0.19588 -0.003,-0.39171 -0.012,-0.58735 -10e-6,-0.0217 -0.003,-0.0434 -0.005,-0.0649 3.53016,0.27656 7.06033,0.55313 10.5905,0.8297 -0.1791,-0.10106 -0.21733,-0.54957 -0.24338,-0.1563 0.008,0.53331 0.0223,1.06634 0.0245,1.59972 0.007,0.68291 2.1e-4,1.36596 0.017,2.04875 0.0151,0.40761 0.004,0.81546 0.0121,1.22321 0.004,0.13616 0.008,0.27232 0.0172,0.40822 -1.82515,-0.27947 -14.42155,0.16462 -10.02345,-0.89118 0.91016,-0.41777 1.73152,-1.0298 2.52726,-1.63419 0.983,-0.91302 1.93972,-1.85517 2.92392,-2.76911 1.35029,-1.24489 2.69148,-2.49865 4.03005,-3.75612 1.28898,-1.11327 2.48521,-2.32199 3.70563,-3.50722 0.90219,-0.81618 1.82134,-1.6119 2.75971,-2.38633 1.15794,-1.09546 2.42031,-2.05573 3.68637,-3.0187 0.89601,-0.77093 1.89547,-1.40112 2.85144,-2.09098 1.42236,-1.09104 2.90072,-2.09845 4.40513,-3.07166 1.14176,-0.78556 2.3223,-1.51173 3.47167,-2.28553 1.14867,-0.75654 2.24387,-1.56807 3.26465,-2.4899 0.95595,-0.9391 1.96145,-1.82785 2.88716,-2.79724 0.63798,-0.63859 1.23014,-1.30889 1.76423,-2.03583 0.55568,-0.83823 0.98586,-1.7442 1.4156,-2.64961 0.2279,-0.44589 0.47533,-0.8905 0.58002,-1.38439 0.0924,-0.39805 0.27263,-0.76566 0.45242,-1.1298 0.0381,-0.0789 0.0211,-0.042 0.0516,-0.11048 0.003,0.0515 -0.0202,0.19632 0.01,0.15442 0.0571,-0.0795 0.0444,-0.19156 0.0818,-0.28202 0.10504,-0.25414 0.25066,-0.43737 0.40618,-0.66456 0,0 10.80278,0.60872 10.80278,0.60872 l 0,0 c -0.25714,0.44465 -0.35442,0.39506 -0.41353,0.84769 -0.003,0.0265 -0.0762,0.0114 -0.0592,0.054 -0.1828,0.22521 -0.32182,0.47999 -0.46418,0.73167 -0.10926,0.59577 -0.30932,1.17045 -0.63696,1.68493 -0.5032,0.91353 -0.91573,1.8772 -1.45179,2.77511 -0.50076,0.82054 -1.06302,1.57378 -1.77356,2.22756 -0.95685,0.98369 -1.9712,1.89325 -2.95221,2.85202 -1.00604,0.95915 -2.02261,1.89316 -3.20811,2.62976 -1.13752,0.8687 -2.43338,1.48787 -3.59193,2.32688 -1.47027,0.9518 -2.94917,1.88474 -4.30576,2.9972 -0.92302,0.74391 -1.93374,1.3464 -2.87492,2.0651 -1.21353,1.01465 -2.60916,1.80034 -3.69037,2.97891 -0.89295,0.80177 -1.80419,1.58942 -2.73803,2.33801 -1.2684,1.1665 -2.47126,2.39957 -3.79197,3.5106 -1.34328,1.22788 -2.61897,2.52618 -3.95762,3.75932 -0.99276,0.92795 -2.01991,1.82064 -2.90999,2.85054 -0.80087,0.67614 -1.65011,1.27439 -2.48866,1.90016 -3.12976,2.14724 -11.03099,1.185 -11.65718,-0.33831 0.009,-0.13583 0.0138,-0.27192 0.0175,-0.408 0.009,-0.40711 -0.002,-0.81429 0.0119,-1.22128 0.0148,-0.67758 0.006,-1.35551 -0.005,-2.03308 -0.0154,-0.54759 -0.0356,-1.0949 -0.054,-1.64229 -10e-4,-4.87072 8.10706,-1.24827 11.43979,-0.64806 -0.002,0.0215 -0.005,0.0432 -0.005,0.0649 -0.009,0.19564 -0.0146,0.39147 -0.012,0.58735 0.007,0.21453 0.008,0.42941 0.005,0.64393 -0.002,0.20145 0.007,0.40248 -0.002,0.60389 10e-4,0.23003 0.002,0.45968 -0.004,0.6898 0.007,0.30453 -0.01,0.60948 -0.006,0.91408 -0.003,0.36879 -0.002,0.73764 0.0125,1.10621 0.0266,0.45543 0.087,0.90917 0.24867,1.33887 0.17542,0.54851 0.27341,1.08766 0.22966,1.66639 0.005,0.53827 0.03,1.07817 0.12436,1.60912 0.14247,0.76546 0.41086,1.50935 0.43862,2.29328 0.0922,1.03233 0.29004,2.04873 0.3935,3.07944 10e-4,0.95079 -0.005,1.90335 0.075,2.85162 0.0692,0.65333 0.19255,1.28811 0.43363,1.90252 0.16721,0.63607 0.28462,1.28617 0.56255,1.88876 0.26451,0.74579 0.53584,1.47817 0.93639,2.16656 0.26239,0.53484 0.52427,1.07035 0.78975,1.60313 0.19586,0.41306 0.30924,0.8619 0.5695,1.23971 0.36824,0.43682 0.59182,0.97768 0.84344,1.48585 0.19124,0.43561 0.4301,0.85502 0.64328,1.27946 0.31824,0.56915 0.58781,1.16089 0.88051,1.74308 0.24143,0.49982 0.57923,0.94559 0.84309,1.43299 0.28336,0.63524 0.61275,1.24542 0.9098,1.87414 0.36527,0.67378 0.67882,1.37486 1.0284,2.0569 0.35248,0.62208 0.58546,1.27979 0.82266,1.95081 0.31666,0.55871 0.65593,1.06826 1.12662,1.50652 0.29467,0.27734 0.55529,0.85273 0.95763,0.93618 0.52419,0.2139 -0.20156,-0.052 0.29989,0.0393 0.23472,0.0428 0.3123,0.34392 0.51967,0.42202 0.38282,0.18863 0.83198,0.16238 1.18141,0.45594 0.37759,0.0481 -0.0614,0.0281 0.3165,-0.0833 0.19413,-0.0572 0.44693,0.11864 0.63264,0.1449 0.41779,0.16371 0.80758,0.40581 1.24459,0.5299 0.46244,-0.0146 0.79604,0.34497 1.24823,0.42518 0.38708,-0.23684 1.00597,0.0901 1.42412,0.13573 0.60607,0.17342 1.15303,0.48398 1.76898,0.58825 0.17414,0.0569 0.34251,0.13261 0.52012,0.17749 0.0761,0.0192 0.31207,0.0315 0.23354,0.0312 -17.75275,-0.0597 -13.74725,-0.0422 -10.12387,-0.0683 3.81019,1e-4 8.07279,-0.27684 12.0626,0.0711 0.67694,0.10028 1.34089,0.25703 1.99553,0.45738 1.11214,0.23395 2.26515,0.29477 3.33856,0.70583 1.31164,0.43193 2.62944,0.84387 3.93933,1.28142 1.18874,0.33458 2.38581,0.61155 3.61288,0.76196 0.2648,0.0606 0.52719,0.13175 0.79303,0.18756 0.11182,0.0235 0.45213,0.0575 0.33788,0.0576 -14.06997,0.0173 -13.94489,-0.62235 0.54839,1.65062 -1.12585,-0.01 -28.17485,-4.4304 0.002,-0.003 -3.83722,0.004 -7.78037,0.70108 -11.52571,-0.0604 -0.28152,-0.0818 -0.54326,-0.18917 -0.80347,-0.32042 -0.5206,-0.17236 -0.98982,-0.15667 -1.53361,-0.17377 -1.0743,-0.10096 -2.14659,-0.226 -3.20886,-0.41866 -1.01144,-0.16654 -2.03905,-0.22679 -3.03774,-0.47488 -3.80956,-0.49245 -0.54869,-0.0533 9.87479,-0.0371 0.14671,2.2e-4 -0.29342,-5.5e-4 -0.44014,-5.3e-4 -0.16548,2e-5 -0.80348,0.001 -0.97105,0.002 -0.15759,3.4e-4 -0.31519,7.7e-4 -0.47279,10e-4 -4.37208,0.014 -8.74866,0.12815 -13.11762,-0.0383 -0.78253,-0.073 -1.56024,-0.18988 -2.32393,-0.37914 -0.95872,-0.21049 -1.94575,-0.30653 -2.86569,-0.66429 -0.63982,-0.2213 -1.31943,-0.33161 -1.94982,-0.59472 -0.7263,-0.11061 -1.3829,-0.40008 -2.08014,-0.60176 -0.54575,-0.2072 -1.05242,-0.50301 -1.57453,-0.75405 -0.39736,-0.3092 -0.89213,-0.45482 -1.2024,-0.87826 -0.38524,-0.36677 -0.78779,-0.71419 -1.20921,-1.03884 -0.5748,-0.4463 -1.19554,-0.83851 -1.64789,-1.42129 -0.48063,-0.51092 -1.01118,-0.97541 -1.40946,-1.55552 -0.42016,-0.6151 -0.7685,-1.27317 -1.18578,-1.89023 -0.33002,-0.57202 -0.68621,-1.12722 -1.00596,-1.70518 -0.42286,-0.68695 -0.81946,-1.39001 -1.23681,-2.08053 -0.50423,-0.87786 -0.9087,-1.79998 -1.37415,-2.69771 -0.47631,-0.726 -0.97333,-1.4377 -1.43115,-2.1759 -0.41957,-0.6461 -0.75046,-1.34139 -1.13375,-2.0084 -0.42365,-0.74008 -0.87334,-1.46944 -1.19765,-2.2605 -0.29437,-0.73263 -0.52458,-1.48806 -0.87057,-2.19989 -0.24714,-0.67755 -0.5209,-1.34663 -0.80888,-2.00776 -0.32396,-0.84293 -0.5146,-1.72063 -0.70797,-2.60052 -0.31562,-1.01825 -0.68061,-2.02075 -0.98393,-3.04316 -0.31768,-1.20912 -0.64484,-2.41451 -0.80793,-3.6577 -0.13407,-1.21796 -0.36635,-2.42913 -0.335,-3.65887 -0.001,-0.34288 -0.004,-0.77836 -0.001,-0.77854 5.39838,-0.40924 11.01754,-4.0585 10.8759,-0.27386 -0.0232,0.17948 -0.0634,0.35597 -0.1088,0.53116 -0.12386,0.47216 -0.36526,0.88457 -0.4886,1.35878 -0.0457,0.63973 -0.0732,1.31661 -0.36812,1.89921 -0.19237,0.58306 0.0162,1.25233 -0.0718,1.85624 -0.01,0.6343 -0.041,1.26889 -0.19527,1.88757 -0.15153,0.74852 -0.34545,1.49125 -0.30921,2.26042 -0.0124,0.77475 -0.0383,1.54927 -0.18355,2.31289 -0.11849,0.59643 -0.33171,1.17895 -0.28808,1.79352 -0.0283,0.50801 -0.0748,1.01792 -0.20077,1.51245 -0.13598,0.57195 -0.38598,1.10211 -0.33098,1.7043 -0.0607,0.66815 -0.12291,1.34362 -0.32747,1.98618 -0.13771,0.53677 -0.16674,1.05887 -0.19106,1.61394 -0.0756,0.65364 -0.26566,1.27954 -0.39775,1.92267 -0.14826,0.83019 -0.0254,1.68891 -0.0656,2.52828 -1.6e-4,0.94404 -0.0173,1.88832 0.013,2.83205 0.0269,0.57713 0.0321,1.16658 0.27942,1.7004 0.25364,0.61187 0.26734,1.2538 0.35829,1.90196 0.13072,0.66538 0.39649,1.2792 0.55516,1.93581 0.17857,0.70493 0.35747,1.40794 0.29954,2.14309 -5.6e-4,0.76216 -0.0118,1.52421 -0.0244,2.28625 -0.026,1.32223 -0.0263,2.64528 -0.006,3.96757 0.10371,5.44675 0.52978,2.87429 -10.85006,2.72496 3.7e-4,-0.0959 0.005,-0.19167 0.0121,-0.28739 0.0293,-0.46195 0.0524,-0.92544 0.11517,-1.38418 0.0913,-0.66391 0.25391,-1.31264 0.39949,-1.96614 -0.009,-0.48974 -0.0102,-0.97949 0.008,-1.46906 0.0472,-0.70797 0.0879,-1.41706 0.18987,-2.11991 0.10996,-0.69712 0.28066,-1.40473 0.0317,-2.08981 -0.16657,-0.51442 -0.27218,-1.02807 -0.24742,-1.57156 -0.002,-0.15495 -0.008,-0.30945 -0.004,-0.46451 -0.002,-0.0553 -0.0122,-0.10958 -0.004,-0.16437 0.0168,-0.26932 0.0256,-0.53907 0.0312,-0.80885 0.0102,-0.69034 0.006,-1.38069 -0.004,-2.07101 -0.002,-0.64037 0.0105,-1.28074 0.0153,-1.92109 -8.5e-4,-1.0217 0.0191,-2.04302 0.0324,-3.06461 0.0333,-1.90817 0.0778,-3.81623 0.13458,-5.72384 0.0806,-2.04886 0.2101,-4.09325 0.42246,-6.13307 0.0632,-2.13814 0.17259,-4.27479 0.34123,-6.40736 0.13845,-2.04504 0.15248,-4.08638 0.1161,-6.13598 -0.003,-1.86419 -0.003,-3.72837 0.0394,-5.59222 0.0477,-2.02362 0.13214,-4.04695 0.34722,-6.0608 0.22836,-2.39221 0.27795,-4.79203 0.43971,-7.18942 0.20541,-3.1193 0.36457,-6.23742 0.48229,-9.36129 0.26847,-3.35039 0.68489,-6.68766 1.19501,-10.00954 0.54368,-2.82693 1.14562,-5.64275 1.67318,-8.47232 0.79514,-5.41083 -1.45063,-2.57963 11.09894,-2.4915 0.004,0.15801 0.0168,0.31573 0.0291,0.47333 0.0845,1.01967 0.18809,2.03902 0.35797,3.0484 0,0 -10.80706,0.13439 -10.80706,0.13439 z"
       inkscape:connector-curvature="0" />
    <path
       style="fill:#241c1c"
       id="path3571"
       d="m 234.48482,548.66027 c 1.74987,2.00358 4.00894,3.43491 6.15756,4.96266 2.37019,1.5129 4.66946,3.13249 7.01168,4.68751 1.55108,0.86785 3.04084,1.82859 4.5233,2.80603 1.50474,1.13686 3.07598,2.18096 4.58671,3.30949 1.43136,1.04569 3.05337,1.77652 4.68921,2.43664 1.74391,0.66712 3.49464,1.31741 5.23196,2.00572 1.58608,0.54427 3.22968,0.86785 4.85212,1.27196 1.71524,0.46356 3.47283,0.69777 5.21203,1.03873 1.7282,0.26862 3.42795,0.66694 5.16972,0.84399 0.31801,0.0229 0.63578,0.0496 0.95404,0.0688 0.70942,0.043 1.32556,0.0632 2.03811,0.0808 0.36242,0.009 1.44991,0.0214 1.08738,0.0207 -10.10853,-0.0178 -12.46358,0.12702 -8.28445,-0.0932 5.19575,-0.37482 10.45699,-0.85801 15.6455,-0.17269 1.09589,0.17782 2.203,0.22903 3.31077,0.25628 1.30117,0.0225 2.60263,0.0189 3.90395,0.0196 -18.1761,-0.0148 -10.99728,0.009 -6.92528,-0.006 0.73804,-8.7e-4 1.47608,-0.004 2.21411,-0.004 4.07219,-0.007 8.14442,0.0123 12.21659,-0.002 0.3481,-10e-4 0.69619,3.5e-4 1.04429,-6.1e-4 3.81441,0.005 8.63431,10e-4 -9.48882,10e-4 0.6121,0.002 1.2242,0.003 1.8363,10e-4 0.49005,-1.2e-4 0.98011,2.1e-4 1.47016,-0.002 3.8581,-0.0295 7.71666,0.0414 11.57465,-0.002 0.23614,1.38526 0.18657,1.15599 -0.41961,1.72353 -0.9289,0.85853 -1.89672,1.67571 -2.86914,2.48513 -1.48595,1.26823 -3.03843,2.44374 -4.65356,3.54117 -1.68597,1.03918 -3.31461,2.16555 -4.95662,3.27185 -1.13458,0.73707 -2.24279,1.51335 -3.35263,2.28678 -0.91065,0.5615 -1.81982,1.12419 -2.73274,1.68237 -1.44624,0.88936 -2.89503,1.77398 -4.32987,2.68178 -1.2422,0.84252 -2.48911,1.66552 -3.78477,2.42313 -0.87118,0.50706 -1.80721,0.88218 -2.66964,1.40423 -1.1597,0.7564 -2.40373,1.37185 -3.63656,1.99797 -1.15677,0.53049 -2.26163,1.16216 -3.39797,1.7321 -1.25796,0.65134 -2.45212,1.41622 -3.6672,2.14259 -0.90151,0.50377 -1.79995,1.01476 -2.72643,1.47152 -0.97015,0.40098 -1.9403,0.8025 -2.8881,1.25438 -0.92223,0.4188 -1.88302,0.74591 -2.80981,1.15331 -1.11834,0.43581 -2.23137,0.88567 -3.3438,1.33652 -1.06854,0.39525 -2.16383,0.72616 -3.26391,1.02352 -0.98508,0.32524 -1.96242,0.68045 -2.925,1.06741 -0.90988,0.35865 -1.80328,0.74256 -2.66077,1.21435 -1.19661,0.61206 -2.38977,1.22693 -3.60773,1.79636 -1.09074,0.54917 -2.24195,0.96168 -3.36934,1.42679 -1.24274,0.54189 -2.46095,1.13456 -3.66584,1.75558 -1.11288,0.63369 -2.30769,1.07417 -3.51356,1.49195 -1.79632,0.69784 -3.63401,1.27805 -5.44225,1.94275 -1.44982,0.51234 -2.89604,1.03242 -4.33489,1.57482 -0.38225,0.0893 -0.70146,0.32548 -1.06782,0.4453 -3.58805,0.83709 -10.2355,0.033 -11.21155,0.0315 -0.33655,-5.1e-4 -0.29455,0.055 -0.49187,-0.28596 -0.0423,-0.1379 -0.0847,-0.27581 -0.12701,-0.41371 0,0 10.85364,-0.69763 10.85364,-0.69763 l 0,0 c 0.0285,-0.0431 0.057,-0.0863 0.0855,-0.1294 0.16425,-0.26224 0.47837,-0.15392 0.4074,-0.15394 -21.80437,-0.005 -13.70241,-0.68784 -10.28646,0.0325 0.41109,0.07 0.7089,0.0325 1.10905,-0.15446 1.49435,-0.50066 2.96275,-1.06937 4.46915,-1.53426 1.7729,-0.69774 3.59721,-1.23874 5.35447,-1.97316 1.1739,-0.43839 2.4076,-0.73681 3.49305,-1.37576 1.2339,-0.57112 2.40759,-1.2656 3.66944,-1.77859 1.08724,-0.55721 2.24662,-0.93502 3.37169,-1.40419 1.19392,-0.60631 2.44319,-1.09483 3.58707,-1.79648 0.89897,-0.38459 1.68526,-1.0136 2.64354,-1.27556 0.96673,-0.43109 1.96392,-0.77792 2.95083,-1.15489 1.06168,-0.41112 2.1922,-0.63264 3.27985,-0.96673 1.12215,-0.41183 2.21912,-0.87436 3.31435,-1.35024 0.95587,-0.29503 1.84378,-0.80302 2.80959,-1.08371 0.97013,-0.41132 1.90164,-0.90601 2.88177,-1.29471 0.97997,-0.31374 1.83001,-0.88683 2.7504,-1.33545 1.26418,-0.65792 2.44337,-1.45997 3.6715,-2.18155 1.13448,-0.59296 2.25636,-1.19404 3.40512,-1.76144 1.22932,-0.54979 2.40495,-1.20109 3.59164,-1.83492 0.82506,-0.6303 1.71379,-1.11784 2.68131,-1.49527 1.32605,-0.72753 2.64741,-1.44538 3.85603,-2.36398 1.42195,-0.89587 2.83392,-1.80707 4.27039,-2.67961 0.88579,-0.59616 1.80949,-1.12639 2.6961,-1.7183 1.22436,-0.6203 2.25775,-1.56996 3.46868,-2.21789 1.63754,-1.10852 3.24764,-2.25957 4.9403,-3.28215 1.61903,-1.0487 3.19691,-2.1515 4.6436,-3.43187 0.93749,-0.76187 1.81976,-1.58779 2.69965,-2.40242 0.59128,-0.61212 0.4603,-0.84864 0.47886,0.8432 -4.34298,-0.0572 13.82767,0.028 9.94347,-0.002 -0.50025,-0.003 -1.00051,-0.002 -1.50076,-0.002 -0.60641,-10e-4 -1.21283,-4.1e-4 -1.81924,10e-4 -3.99613,-8e-5 -7.99227,-0.004 -11.98839,10e-4 -0.34555,-9.9e-4 -0.69109,8.7e-4 -1.03664,-6.2e-4 -4.6474,-0.0172 14.4927,0.005 9.23429,-0.002 -0.7519,-1.5e-4 -1.5038,-0.003 -2.2557,-0.003 -4.78907,-0.0114 -9.57823,0.0308 -14.36726,-0.002 -1.31428,-10e-4 -2.6293,10e-4 -3.94258,-0.0566 -1.10631,-0.0618 -2.20399,-0.19498 -3.30549,-0.31089 -3.86914,-0.17856 -1.75586,-0.0706 9.30051,-0.0682 0.26471,6e-5 -0.52877,0.0261 -0.79303,0.0414 -0.98558,0.0572 -1.96994,0.13303 -2.95416,0.20952 -5.6233,0.43688 -11.31613,0.37705 -16.93582,-0.13292 -1.73423,-0.25433 -3.45066,-0.61682 -5.18001,-0.90267 -1.76118,-0.29362 -3.49845,-0.68525 -5.23629,-1.09415 -1.64651,-0.37395 -3.28151,-0.81809 -4.86015,-1.42182 -1.74321,-0.67494 -3.49404,-1.33053 -5.22674,-2.03143 -1.66587,-0.72268 -3.27588,-1.58293 -4.72057,-2.69186 -1.51499,-1.1084 -3.05148,-2.18853 -4.59931,-3.25042 -1.46811,-0.96811 -2.98551,-1.85547 -4.452,-2.82603 -2.29562,-1.5841 -4.57656,-3.18948 -6.90839,-4.72048 -2.23998,-1.58262 -4.48704,-3.16233 -6.42376,-5.12036 0,0 10.76891,-0.84753 10.76891,-0.84753 z"
       inkscape:connector-curvature="0" />
    <path
       style="fill:#241c1c"
       id="path3573"
       d="m 256.96028,551.92772 c 1.02958,-0.79998 1.87001,-1.79745 2.63363,-2.84584 0.15015,-0.19786 0.29017,-0.44572 0.43893,-0.63128 -9e-5,0.0175 -0.0178,0.0518 -2.8e-4,0.0526 11.89951,0.57608 10.90696,-2.78585 10.78211,3.09618 -0.11907,2.22524 -0.36404,4.43807 -0.72174,6.63689 -0.42167,2.26589 -0.6036,4.56151 -0.70712,6.86055 -0.14454,1.93157 -0.0113,3.85124 0.15189,5.775 0.0859,1.80782 0.25805,3.60057 0.50822,5.39221 0.18567,1.32749 0.25971,2.66301 0.42121,3.99304 0.22532,1.97978 0.51009,3.95289 0.7976,5.92466 0.25121,1.93454 0.62561,3.84814 0.89304,5.78057 0.16451,1.20394 0.43232,2.38269 0.54373,3.5958 0.2247,1.39169 0.39819,2.78467 0.81437,4.13547 0.40081,1.33968 0.99593,2.60807 1.5254,3.90012 0.39247,1.02929 0.73338,2.08316 1.25803,3.05461 0.52127,0.84072 1.05496,1.67926 1.54618,2.53956 0.56089,1.02503 1.4577,1.76032 2.36993,2.45518 0.83228,0.38687 1.59502,0.9559 2.49324,1.18769 0.56743,0.19317 1.11633,-0.0649 1.62566,0.25144 0.15197,0.0514 0.46393,0.17165 0.62641,0.16423 0.12398,-0.006 0.48382,-0.0948 0.35971,-0.0962 -17.83247,-0.19434 -13.07195,0.24414 -9.38543,-0.0727 0.44979,0.004 0.87471,-0.11055 1.29588,-0.25211 0,0 10.76297,1.05754 10.76297,1.05754 l 0,0 c -0.40622,0.39369 -0.79559,0.67157 -1.36547,0.7893 -4.33488,0.4133 -8.87156,1.14236 -13.05522,-0.16339 -0.56766,0.0787 -1.11118,-0.15782 -1.62079,-0.38868 -0.85347,-0.45544 -1.72109,-0.90724 -2.4773,-1.51511 -0.95436,-0.80823 -1.79107,-1.73361 -2.39116,-2.83983 -0.53888,-0.87073 -1.1215,-1.7165 -1.59569,-2.62556 -0.4517,-1.02133 -0.79205,-2.08677 -1.19445,-3.12806 -0.5425,-1.32592 -1.15461,-2.63144 -1.53056,-4.01764 -0.38053,-1.42117 -0.59745,-2.8741 -0.83278,-4.32492 -0.13875,-1.19943 -0.42244,-2.3741 -0.51752,-3.578 -0.19656,-1.92791 -0.56338,-3.83042 -0.80791,-5.75205 -0.29969,-1.97994 -0.60881,-3.95866 -0.88346,-5.94193 -0.18661,-1.32847 -0.27691,-2.66125 -0.414,-3.99537 -0.21387,-1.80975 -0.36545,-3.61906 -0.46421,-5.43898 -0.16868,-1.97202 -0.30223,-3.94137 -0.14118,-5.92076 0.13469,-2.33488 0.34696,-4.6683 0.74746,-6.97416 0.33539,-2.14328 0.57598,-4.30003 0.655,-6.46934 -0.11443,-5.89185 -0.95107,-2.7528 10.83396,-2.68997 0.025,1.3e-4 -0.006,0.0497 -0.009,0.0746 -0.10128,0.30467 -0.3826,0.52713 -0.54195,0.7968 -0.83542,1.07465 -1.69703,2.12751 -2.6577,3.09376 0,0 -10.76981,-0.94592 -10.76981,-0.94592 z"
       inkscape:connector-curvature="0" />
    <path
       style="fill:#1a1a1a"
       id="path3575"
       d="m 215.84471,643.68354 c 2.41797,-1.56014 4.98965,-2.85465 7.57346,-4.11224 3.35934,-1.51204 6.76499,-2.93297 10.21284,-4.23158 2.34528,-0.85492 4.72294,-1.61765 7.14716,-2.21333 2.23675,-0.60085 4.46763,-1.22432 6.65527,-1.98634 2.61283,-0.91348 5.17902,-1.95101 7.77587,-2.9073 1.77372,-0.62263 3.54196,-1.26282 5.3246,-1.85962 2.03061,-0.76649 4.13464,-1.29222 6.25164,-1.7535 2.21255,-0.50738 4.4442,-0.90641 6.70138,-1.1452 1.63822,-0.16757 3.28645,-0.11746 4.92542,-0.26276 5.42999,-0.58647 10.90362,-0.30501 16.35252,-0.28644 1.6734,0.0242 3.26145,0.48857 4.86562,0.89711 1.37118,0.40635 2.64873,1.03198 3.92395,1.66748 1.21577,0.56416 2.25944,1.39423 3.37972,2.11078 0.90673,0.69579 1.91753,1.26122 2.7444,2.05274 0.61851,0.44073 1.12281,0.99913 1.58304,1.60181 0.4308,0.59754 -0.24345,-0.37714 0.21229,0.46094 0.0433,0.0796 0.17162,0.0821 0.22114,0.15797 0.0893,0.1368 0.12813,0.30056 0.19303,0.45047 0.1493,0.52888 0.17676,1.07482 0.1822,1.62082 -0.0661,0.84364 -0.40063,1.61625 -0.77627,2.36223 -0.2992,0.60004 -0.71831,1.11237 -1.17588,1.59619 -1.21,1.07176 -2.44948,2.11861 -3.7225,3.11653 -1.27522,1.0286 -2.65314,1.91269 -4.1229,2.63381 -0.92786,0.4125 -1.86365,0.8098 -2.86159,1.01347 -4.40672,1.38509 -8.50812,0.53756 -13.47026,0.53968 -4.12532,-0.57515 -12.38454,-0.33839 5.94754,-0.26733 -4.38522,0.2366 -8.74954,0.0734 -13.16028,0.0513 -0.82515,-0.004 -1.53318,-0.1608 -2.31838,-0.39513 -1.36267,-0.58837 -2.7644,-1.08169 -4.05325,-1.82321 -1.04619,-0.52295 -2.00248,-1.21072 -2.88877,-1.97235 -0.93405,-0.77531 -1.56281,-1.83253 -2.35292,-2.73574 -0.66516,-0.73641 -1.23573,-1.55142 -1.88314,-2.30534 -0.43615,-0.50059 -0.91043,-0.96545 -1.37589,-1.43822 -0.49708,-0.42914 -0.73831,-1.01314 -1.26652,-1.40263 -0.28465,-0.0695 -0.23816,-0.41298 -0.40519,-0.57993 -0.0281,-0.0281 -0.0896,0.0171 -0.11868,-0.01 -0.11567,-0.10779 -0.16104,-0.27217 -0.24466,-0.40636 -0.40533,-0.0276 -0.53656,-0.48245 -0.7034,-0.8038 -0.32579,-0.23676 -0.40032,-0.60155 -0.51321,-0.96587 -0.27077,-0.32412 -0.38231,-0.73254 -0.61838,-1.09055 -0.15175,-0.38119 -0.30828,-0.76094 -0.43683,-1.15078 -1.11895,-3.67902 12.89173,-2.70517 10.46153,0.54381 -0.32684,0.32291 -0.51328,0.74884 -0.79806,1.10544 -0.52745,0.87332 -1.1734,1.65639 -1.70141,2.531 -0.94906,1.57745 -1.58436,3.3093 -2.29529,5 -0.61423,1.58603 -1.26492,3.16031 -1.81708,4.76946 -0.3522,0.88175 -0.62034,1.79624 -1.00649,2.66384 -0.35331,0.78501 -0.60557,1.60902 -0.95022,2.39841 -0.5555,1.29217 -1.15947,2.56234 -1.73541,3.84546 -0.50832,1.10861 -1.0481,2.20203 -1.58079,3.29898 -0.34351,0.89114 -0.6497,1.7892 -1.06881,2.64977 -0.39727,0.80115 -0.79882,1.60022 -1.20359,2.39761 -0.38513,0.70663 -0.68983,1.452 -1.01249,2.18833 -0.1953,0.51981 -0.44355,1.01987 -0.62564,1.54403 -0.19652,0.54836 -0.45597,1.06616 -0.59652,1.63347 -0.0203,0.0999 -0.15571,0.63912 -0.0343,0.62131 0.1683,0.19641 0.23384,1.02206 0.43874,1.03983 0.22816,0.35036 0.37263,0.68363 0.45201,1.09037 0.0347,0.17875 0.0597,0.359 0.0727,0.54053 0.0631,0.46374 -0.29841,-0.63566 0.19321,-0.15816 0.17546,0.47988 0.22364,0.98118 0.25999,1.48662 0.021,0.50344 0.0135,1.00723 0.0176,1.51091 0.0326,0.87659 -0.0621,0.33847 0.13936,0.45699 0.23519,0.19176 0.45325,0.40299 0.66481,0.62016 0.39312,0.2239 0.67499,0.57069 0.97671,0.93175 0.2432,0.22233 0.20544,0.53639 0.22282,0.84045 -0.01,0.25017 -0.0682,-0.30299 0.31275,-0.42954 0.0426,-0.008 0.065,-0.0362 0.0955,-0.0613 0,0 -10.79277,1.60151 -10.79277,1.60151 l 0,0 c -0.0349,-0.0325 -0.0669,-0.0681 -0.10864,-0.0929 -0.29979,-0.23118 -0.41724,-0.55721 -0.40165,-0.94765 -0.0167,-0.21281 -0.0138,0.19563 -0.17979,-0.11941 -0.30404,-0.31595 -0.67815,-0.52359 -0.95718,-0.86521 -0.25841,-0.2474 -0.52248,-0.4997 -0.69633,-0.81633 -0.16849,-0.36691 -0.16612,-0.72686 -0.13774,-1.11986 0.005,-0.47701 0.004,-0.95484 -0.0219,-1.43123 -0.0121,-0.16725 -0.007,-0.73541 -0.24962,-0.70927 -0.24804,-0.25394 -0.29766,-0.94859 -0.2476,-0.66439 -0.003,-0.10624 -0.0138,-0.21228 -0.0413,-0.3156 -0.0901,-0.27275 -0.31197,-0.51015 -0.43171,-0.77491 -0.13518,-0.43051 -0.28177,-0.8535 -0.44877,-1.27336 -0.07,-0.41732 -0.0902,-0.82573 0.0406,-1.23486 0.15207,-0.57292 0.31056,-1.15036 0.62092,-1.66144 0.14374,-0.59589 0.41382,-1.13347 0.63324,-1.70143 0.34904,-0.75397 0.6624,-1.51653 1.05458,-2.2478 0.42155,-0.78759 0.78876,-1.60287 1.18104,-2.40453 0.47352,-0.82585 0.80654,-1.7007 1.10194,-2.60356 0.51437,-1.10159 1.08776,-2.17486 1.60884,-3.27351 0.57526,-1.28261 1.20906,-2.54149 1.70903,-3.85636 0.38267,-0.78606 0.58926,-1.6232 0.89711,-2.43722 0.45306,-0.79754 0.6985,-1.68682 1.08136,-2.51909 0.57064,-1.63423 1.28629,-3.21486 1.89781,-4.83422 0.717,-1.72066 1.33323,-3.48771 2.22311,-5.13017 0.47149,-0.88896 1.00986,-1.71631 1.60114,-2.5264 0.20678,-0.48407 0.59601,-0.86465 0.81987,-1.34768 2.78881,-2.49993 10.24405,-3.3097 11.25435,-0.0873 0.0947,0.31453 0.20754,0.62783 0.3879,0.90447 0.23114,0.42866 0.4493,0.86411 0.65238,1.30465 0.11713,0.28264 0.39322,0.44696 0.50993,0.74294 0.20916,0.2818 0.55023,0.36123 0.68151,0.72025 0.2393,0.28402 0.44331,0.56597 0.73729,0.79406 0.41271,0.48712 0.76075,1.02317 1.25735,1.43758 0.47878,0.48926 0.92973,1.00361 1.36144,1.53493 0.61087,0.7765 1.19917,1.57091 1.85331,2.3124 0.6925,0.91043 1.40712,1.81917 2.33026,2.51003 0.89391,0.66957 1.83879,1.27054 2.83984,1.76826 1.29023,0.61383 2.62075,1.18133 4.00369,1.54693 0.81314,0.12607 0.65643,0.12458 1.47278,0.16127 0.26541,0.0119 1.06241,0.0212 0.79673,0.0222 -17.45571,0.0659 -11.73583,0.17349 -8.03203,-0.0424 5.16457,-0.006 10.21404,-0.24142 15.31703,0.27416 -19.14238,0.10374 -11.65655,0.68898 -7.92846,-0.28521 0.93696,-0.36101 2.00506,-0.35538 2.89173,-0.89074 1.51562,-0.52816 2.91131,-1.37722 4.18098,-2.35143 1.24351,-0.92732 2.36262,-1.98867 3.56525,-2.96416 0.40936,-0.42071 0.84018,-0.82721 1.15597,-1.32675 0.35155,-0.54081 0.64011,-1.13716 0.74435,-1.77501 -0.0176,-0.37695 -0.003,-0.7959 -0.19406,-1.13311 -0.18969,-0.29167 -0.38777,-0.57666 -0.59735,-0.85369 -0.44789,-0.52803 -0.99586,-0.95415 -1.52059,-1.40247 -0.88579,-0.66151 -1.77393,-1.3204 -2.69654,-1.93067 -1.06117,-0.74427 -2.17432,-1.40115 -3.34739,-1.95582 -1.26245,-0.57272 -2.51854,-1.16043 -3.88175,-1.46189 -1.57116,-0.40117 -3.16771,-0.6535 -4.79323,-0.67911 18.55007,-0.0664 9.08875,-0.20653 4.84211,0.22285 -1.65056,0.19624 -3.29426,0.23354 -4.95652,0.27454 -2.2767,0.16288 -4.54069,0.46712 -6.76013,1.0138 -2.07847,0.39961 -4.15711,0.87889 -6.13755,1.63339 -1.80042,0.62199 -3.60668,1.22242 -5.41419,1.82544 -2.61008,0.94033 -5.19487,1.9436 -7.79644,2.90797 -2.16912,0.81027 -4.37167,1.47499 -6.59901,2.10682 -2.45367,0.6022 -4.90474,1.2103 -7.28185,2.08307 -3.47124,1.19931 -6.84438,2.67369 -10.21938,4.11721 -2.4816,1.21207 -4.96956,2.42491 -7.26924,3.9653 0,0 -10.75188,-1.0251 -10.75188,-1.0251 z"
       inkscape:connector-curvature="0" />
    <path
       style="fill:#800000"
       id="path3603"
       d="m 243.43096,447.04317 c -0.49332,1.04674 -0.61248,2.25506 -0.78454,3.38887 -0.21473,1.67037 -0.29796,3.35788 -0.26594,5.04118 0.0469,1.57486 0.25845,3.13885 0.4807,4.69692 0.22693,1.80161 0.42117,3.60698 0.63603,5.41006 0.21748,1.56783 0.51235,3.12228 0.69195,4.69529 0.16139,1.6746 0.0634,3.36453 -0.0578,5.03886 -0.11077,1.74195 -0.30261,3.47628 -0.49481,5.21057 -0.1556,1.46194 -0.3348,2.92135 -0.52135,4.37966 -0.15799,1.5772 -0.44488,3.13737 -0.68472,4.70336 -0.24713,1.641 -0.50286,3.28059 -0.75794,4.92037 -0.22528,1.55791 -0.3553,3.1274 -0.59456,4.68301 -0.23624,1.46132 -0.54853,2.90766 -0.8042,4.36569 -0.19221,1.22166 -0.324,2.45258 -0.45564,3.68218 -0.0884,0.79714 -0.10037,1.59899 -0.0975,2.40005 0.0389,0.54777 -0.0186,1.09497 -0.10974,1.63496 -0.0376,0.22253 -0.0135,0.16921 -0.0609,0.26366 -0.0799,0.56656 -0.17841,1.13094 -0.25143,1.69853 -0.0663,0.62134 -0.0695,1.24631 -0.0688,1.87038 0.0279,-0.47342 0.16062,0.31049 0.1814,0.39515 0.0961,0.55294 0.0885,1.11556 0.0857,1.67458 4.1e-4,0.512 -0.01,1.02385 -0.0147,1.53576 -0.006,0.52711 0.005,1.05403 0.0124,1.58098 0.0168,0.32086 0.008,0.64211 0.0139,0.96311 0.0347,0.78268 -0.14395,1.54317 -0.40202,2.27453 -0.16157,0.43772 -0.64758,1.49167 0.10024,-0.45708 0.0928,-0.24174 -0.12987,0.50317 -0.22986,0.74201 -0.11028,0.2634 -0.26554,0.50562 -0.39831,0.75842 0,0 -8.01353,-4.33426 -8.01353,-4.33426 l 0,0 c -0.0626,0.15449 -0.13585,0.3051 -0.18785,0.46348 -0.0624,0.19015 -0.22662,0.7669 -0.15481,0.5801 0.75529,-1.96461 0.36562,-1.26319 0.26545,-0.81154 -0.0359,0.20689 -0.1522,1.68786 -0.10316,0.78442 0.006,-0.32149 -0.003,-0.64323 0.014,-0.96457 0.008,-0.52876 0.0188,-1.05749 0.0139,-1.5864 -0.004,-0.49167 -0.0111,-0.98329 -0.0144,-1.47497 -0.001,-0.0553 -0.0294,-0.6463 -0.009,-0.30925 -0.0909,-0.63828 -0.24189,-1.27012 -0.21797,-1.92078 0.0235,-0.84422 0.0556,-1.68906 0.13071,-2.53043 0.0675,-0.71971 0.17888,-1.43253 0.23391,-2.15312 0.0202,-0.13509 0.0368,-0.27076 0.0606,-0.40525 0.008,-0.0436 0.004,-0.0957 0.034,-0.12842 0.0448,-0.0492 -0.057,0.56763 0.0195,0.2885 0.0517,-0.18875 -0.0406,-0.39911 0.0252,-0.58658 0.0426,-1.02755 0.10965,-2.05466 0.22094,-3.07719 0.16989,-1.36203 0.35243,-2.72355 0.5664,-4.07909 0.25017,-1.43484 0.53568,-2.86125 0.78952,-4.29509 0.27252,-1.5162 0.38964,-3.05504 0.61323,-4.57891 0.23657,-1.63103 0.53176,-3.25306 0.76986,-4.88402 0.20998,-1.52583 0.46654,-3.046 0.61461,-4.57976 0.18061,-1.44908 0.38382,-2.895 0.56002,-4.34456 0.21377,-1.60515 0.36959,-3.21558 0.46033,-4.83264 0.0774,-1.25451 0.13906,-2.52147 0.0416,-3.77559 -0.16412,-1.55611 -0.43085,-3.09835 -0.6072,-4.65316 -0.2021,-1.74666 -0.41724,-3.49218 -0.64301,-5.2358 -0.26327,-1.85431 -0.48263,-3.72002 -0.51202,-5.59472 -0.0225,-2.04183 0.0881,-4.08418 0.31061,-6.11424 0.21384,-1.67405 0.45002,-3.34911 0.85936,-4.98854 0,0 8.71145,2.57132 8.71145,2.57132 z"
       inkscape:connector-curvature="0"
       inkscape:export-xdpi="90"
       inkscape:export-ydpi="90" />
  </g>
</svg>
