<?xml version="1.0" encoding="UTF-8" standalone="no"?>
<!-- Created with Inkscape (http://www.inkscape.org/) -->

<svg
   xmlns:dc="http://purl.org/dc/elements/1.1/"
   xmlns:cc="http://creativecommons.org/ns#"
   xmlns:rdf="http://www.w3.org/1999/02/22-rdf-syntax-ns#"
   xmlns:svg="http://www.w3.org/2000/svg"
   xmlns="http://www.w3.org/2000/svg"
   xmlns:sodipodi="http://sodipodi.sourceforge.net/DTD/sodipodi-0.dtd"
   xmlns:inkscape="http://www.inkscape.org/namespaces/inkscape"
   width="297mm"
   height="210mm"
   viewBox="0 0 1052.3622 744.09448"
   id="svg2"
   version="1.1"
   inkscape:version="0.91 r13725"
   inkscape:export-filename="/home/marouano/Projects/website/logo.png"
   inkscape:export-xdpi="90"
   inkscape:export-ydpi="90"
   sodipodi:docname="logo.svg">
  <defs
     id="defs4" />
  <sodipodi:namedview
     id="base"
     pagecolor="#ffffff"
     bordercolor="#666666"
     borderopacity="1.0"
     inkscape:pageopacity="0.0"
     inkscape:pageshadow="2"
     inkscape:zoom="0.98994949"
     inkscape:cx="305.83726"
     inkscape:cy="404.25236"
     inkscape:document-units="px"
     inkscape:current-layer="layer1"
     showgrid="false"
     inkscape:window-width="1680"
     inkscape:window-height="992"
     inkscape:window-x="0"
     inkscape:window-y="0"
     inkscape:window-maximized="1" />
  <metadata
     id="metadata7">
    <rdf:RDF>
      <cc:Work
         rdf:about="">
        <dc:format>image/svg+xml</dc:format>
        <dc:type
           rdf:resource="http://purl.org/dc/dcmitype/StillImage" />
        <dc:title></dc:title>
      </cc:Work>
    </rdf:RDF>
  </metadata>
  <g
     inkscape:label="Layer 1"
     inkscape:groupmode="layer"
     id="layer1"
     transform="translate(0,-308.26772)">
    <text
       xml:space="preserve"
       style="font-style:normal;font-variant:normal;font-weight:normal;font-stretch:normal;font-size:50px;line-height:125%;font-family:'Noto Sans Vai';-inkscape-font-specification:'Noto Sans Vai';letter-spacing:0px;word-spacing:0px;fill:#000000;fill-opacity:1;stroke:none;stroke-width:1px;stroke-linecap:butt;stroke-linejoin:miter;stroke-opacity:1"
       x="293.95438"
       y="538.19458"
       id="text3352"
       sodipodi:linespacing="125%"><tspan
         sodipodi:role="line"
         x="0"
         y="0"
         style="font-size:180px"
         rotate="49.899994 0"
         dy="0.55000001"
         id="tspan3397"><tspan
           rotate="0"
           id="tspan3403"
           style="font-size:180px" /></tspan></text>
    <g
       id="g3409"
       transform="matrix(0.62209545,0.78294142,-0.78294142,0.62209545,536.66992,-40.072847)">
      <text
         sodipodi:linespacing="125%"
         id="text3405"
         y="544.25549"
         x="342.44171"
         style="font-style:normal;font-weight:normal;font-size:50px;line-height:125%;font-family:sans-serif;letter-spacing:0px;word-spacing:0px;fill:#000000;fill-opacity:1;stroke:none;stroke-width:1px;stroke-linecap:butt;stroke-linejoin:miter;stroke-opacity:1"
         xml:space="preserve"><tspan
           rotate="0 0 0 0"
           style="font-size:180px"
           y="544.25549"
           x="342.44171"
           id="tspan3407"
           sodipodi:role="line">mar</tspan></text>
    </g>
    <path
       style="fill:#800000"
       id="path3449"
       d="m 334.97592,582.05194 c -0.14927,0.33372 -0.0812,0.11193 -0.0392,-0.11657 0.0672,-0.39651 0.0766,-0.80018 0.0576,-1.20111 0.015,-0.28701 0.15947,0.0813 0.21426,0.17888 0.21388,0.34443 0.48714,0.64769 0.74448,0.96251 0.60276,0.77233 1.23948,1.51675 1.86105,2.27364 0.92637,1.13837 1.7993,2.31853 2.66121,3.50598 0.99196,1.37728 1.93496,2.78954 2.8421,4.22391 1.05905,1.68363 2.04396,3.41191 3.0108,5.1496 1.06268,1.93399 2.10626,3.87845 3.15437,5.8204 1.12505,2.06809 2.28028,4.11948 3.41791,6.18061 1.19324,2.14405 2.38539,4.28866 3.5732,6.43572 1.19179,2.18154 2.43453,4.33432 3.71361,6.46568 1.31912,2.20629 2.67626,4.38939 4.04788,6.5633 1.36331,2.19822 2.75835,4.3761 4.17989,6.53702 1.42161,2.14453 2.85952,4.27816 4.29523,6.41325 1.37767,2.03619 2.78765,4.05007 4.19725,6.06418 1.33933,1.91755 2.668,3.84236 4.01472,5.75473 1.24905,1.76339 2.53798,3.49737 3.83922,5.22237 1.25966,1.64778 2.54026,3.2792 3.84783,4.88921 1.27512,1.56597 2.55898,3.125 3.8668,4.66383 1.27145,1.49886 2.56436,2.97952 3.86185,4.45586 1.2922,1.48175 2.57327,2.97307 3.86194,4.45785 1.28833,1.47027 2.569,2.94729 3.83262,4.43885 1.21438,1.40906 2.42658,2.81998 3.6391,4.23062 1.07884,1.27404 2.17024,2.53548 3.31795,3.748 0.59013,0.62786 1.25897,1.16425 1.95534,1.66714 0.69031,0.75867 -10.03887,10.52124 -10.72918,9.76257 l 0,0 c -1.03746,-0.9247 -2.04927,-1.87732 -2.97423,-2.91677 -1.21363,-1.33706 -2.39025,-2.7066 -3.57535,-4.06889 -1.23657,-1.42228 -2.47498,-2.84303 -3.70024,-4.27509 -1.2582,-1.45953 -2.5217,-2.91446 -3.78546,-4.36918 -1.27344,-1.47253 -2.55876,-2.93471 -3.83881,-4.40149 -1.3374,-1.53524 -2.67593,-3.06953 -3.98785,-4.62671 -1.36054,-1.6196 -2.71163,-3.24723 -4.03972,-4.89362 -1.37636,-1.7221 -2.73716,-3.45674 -4.06646,-5.21553 -1.37723,-1.82752 -2.72901,-3.67402 -4.05113,-5.54188 -1.3577,-1.9173 -2.69827,-3.84665 -4.05809,-5.76246 -1.46243,-2.07244 -2.91427,-4.15237 -4.3332,-6.25494 -1.47713,-2.18033 -2.95356,-4.36139 -4.3954,-6.5653 -1.44953,-2.23028 -2.86924,-4.47953 -4.28023,-6.73437 -1.42084,-2.26916 -2.82753,-4.54738 -4.1855,-6.85488 -1.32059,-2.25396 -2.60543,-4.52817 -3.85375,-6.82303 -1.1805,-2.14751 -2.37305,-4.28833 -3.55642,-6.43425 -1.16431,-2.10638 -2.33044,-4.21189 -3.457,-6.33881 -1.00799,-1.89758 -2.0016,-3.80291 -3.03045,-5.68932 -0.83641,-1.52029 -1.68632,-3.03425 -2.61547,-4.50041 -0.78091,-1.21372 -1.57839,-2.41725 -2.43289,-3.58085 -0.75417,-1.02913 -1.5265,-2.04469 -2.32682,-3.03849 -0.77681,-0.9859 -1.53536,-1.98754 -2.22815,-3.03488 -0.59527,-0.93132 -1.14316,-1.89376 -1.57821,-2.91162 -0.36755,-0.87191 -0.70017,-1.76135 -0.87837,-2.69412 -0.20746,-1.17185 -0.29695,-2.36124 -0.0951,-3.54283 0.13621,-0.73134 0.31242,-1.45203 0.56822,-2.15182 0.31633,-0.95573 13.83252,3.51777 13.51619,4.47351 z"
       inkscape:connector-curvature="0" />
    <path
       style="fill:#800000"
       id="path3457"
       d="m 499.97142,514.68136 c -0.32519,0.0347 -0.0388,-0.20303 0.0691,-0.31342 0.13288,-0.16991 0.28221,-0.31363 0.37349,-0.50344 -0.35333,0.15649 -0.62709,0.43626 -0.91362,0.68822 -0.21332,0.19865 -0.44967,0.35975 -0.68358,0.52765 -0.33821,0.36351 -0.61163,0.78614 -0.88715,1.19828 -0.33245,0.49118 -0.63658,1.00041 -0.92004,1.52115 -0.33972,0.63729 -0.63582,1.29641 -0.92971,1.95567 -0.29747,0.65941 -0.53502,1.34378 -0.77399,2.02594 -0.27602,0.803 -0.53031,1.61326 -0.77875,2.42515 -0.25767,0.8387 -0.4999,1.68198 -0.72957,2.52875 -0.23072,0.86793 -0.44496,1.74032 -0.64246,2.6164 -0.19299,0.89839 -0.37346,1.79966 -0.53026,2.7051 -0.15361,0.93873 -0.2869,1.88044 -0.40144,2.82468 -0.11011,0.99431 -0.22743,1.98805 -0.3194,2.98425 -0.0832,0.97052 -0.15392,1.94186 -0.20543,2.91455 -0.0458,0.95097 -0.0654,1.90335 -0.0688,2.85538 -0.001,0.93783 0.0399,1.87501 0.0922,2.81117 0.0445,0.96804 0.14854,1.9317 0.24712,2.8953 0.10895,0.98306 0.25107,1.96162 0.39294,2.9403 0.13929,0.92839 0.325,1.84835 0.51898,2.76652 0.2096,0.92283 0.43042,1.84285 0.68222,2.75513 0.24985,0.91224 0.52935,1.816 0.81876,2.71637 0.29719,0.86438 0.59532,1.72823 0.92833,2.57959 0.31634,0.82184 0.63693,1.64245 1.01549,2.43791 0.36082,0.7966 0.75576,1.57628 1.15834,2.35227 0.39066,0.7266 0.82194,1.42974 1.24703,2.13639 0.41689,0.67771 0.87654,1.32639 1.33694,1.97469 0.41059,0.57143 0.84043,1.12042 1.32884,1.62691 0.48776,0.52972 0.99343,1.04362 1.51769,1.53734 0.48518,0.42051 0.95445,0.86844 1.49031,1.22483 0.53675,0.36697 1.04387,0.78997 1.61824,1.09765 0.52007,0.33284 1.07465,0.60241 1.63729,0.85374 0.6053,0.305 1.22223,0.57898 1.85833,0.8121 0.5904,0.21932 1.20057,0.37132 1.80643,0.53737 0.65717,0.20583 1.33484,0.33214 2.00655,0.48115 0.59779,0.11232 1.20397,0.12223 1.80776,0.17308 0.71943,-0.002 1.43764,0.068 2.15423,0.12664 0.71054,0.0516 1.42904,0.0956 2.14113,0.0478 3.26652,0.029 -5.42941,-0.18148 -1.47072,-0.004 0.70617,-0.0188 1.41316,-0.0101 2.11773,-0.0642 0.75171,-0.0462 1.5029,-0.14364 2.24856,-0.25062 0.72208,-0.0579 1.43185,-0.20444 2.13689,-0.36492 0.74801,-0.16446 1.49594,-0.3366 2.22982,-0.55618 0.73952,-0.2045 1.47294,-0.43728 2.19065,-0.70868 0.70378,-0.23707 1.38377,-0.535 2.07179,-0.8129 0.70034,-0.3069 1.37378,-0.67437 2.05439,-1.02299 0.68708,-0.37118 1.35857,-0.76674 2.00592,-1.20333 0.6629,-0.42535 1.31056,-0.87371 1.95912,-1.32039 0.57844,-0.39264 1.12167,-0.82944 1.65097,-1.28544 0.54115,-0.44752 1.04545,-0.93615 1.55557,-1.41794 0.48987,-0.46813 0.95414,-0.96119 1.41358,-1.45884 0.46892,-0.5166 0.91096,-1.05611 1.34342,-1.60329 0.39454,-0.50539 0.78877,-1.012 1.16424,-1.53183 0.34006,-0.5052 0.67953,-1.01078 0.99152,-1.53382 0.27296,-0.45421 0.51144,-0.92801 0.73279,-1.40909 0.20792,-0.43464 0.36747,-0.89029 0.52061,-1.34643 0.13675,-0.39396 0.22937,-0.80122 0.31329,-1.20913 0.092,-0.46982 0.1552,-0.94459 0.20079,-1.42098 0.0445,-0.47534 0.0471,-0.95331 0.041,-1.43029 0.0107,-0.47056 -0.042,-0.93639 -0.10129,-1.40182 -0.0484,-0.49105 -0.17249,-0.96931 -0.28594,-1.44811 -0.0998,-0.45674 -0.28562,-0.88236 -0.45066,-1.31676 -0.19183,-0.46063 -0.43821,-0.89431 -0.67022,-1.33516 -0.28385,-0.46297 -0.59477,-0.90854 -0.8975,-1.35967 -0.39252,-0.51191 -0.75489,-1.04669 -1.15515,-1.55261 -0.42069,-0.53711 -0.8385,-1.07782 -1.27832,-1.59947 -0.43269,-0.51717 -0.89705,-1.00552 -1.34002,-1.51398 -0.47507,-0.57035 -0.99898,-1.09602 -1.48825,-1.65343 -0.5037,-0.57812 -1.04367,-1.12278 -1.55225,-1.69658 -0.53337,-0.60184 -1.0739,-1.19726 -1.61307,-1.79389 -0.54554,-0.54564 -1.04991,-1.12983 -1.58899,-1.68158 -0.5711,-0.61493 -1.11893,-1.25251 -1.70918,-1.8493 -0.55368,-0.58529 -1.13092,-1.14758 -1.68902,-1.72822 -0.59532,-0.57755 -1.18568,-1.16023 -1.77528,-1.74362 -0.58296,-0.64491 -1.22956,-1.22599 -1.84528,-1.83797 -0.624,-0.61063 -1.26302,-1.2055 -1.8809,-1.82249 -0.6294,-0.58945 -1.2534,-1.18468 -1.87674,-1.78054 -0.57672,-0.51333 -1.15183,-1.0299 -1.75172,-1.51626 -0.64565,-0.49873 -1.27182,-1.02203 -1.90518,-1.53654 -0.64414,-0.47412 -1.27231,-0.96896 -1.9133,-1.44697 -0.64221,-0.49491 -1.30832,-0.95699 -1.96068,-1.43831 -0.68114,-0.48463 -1.35422,-0.9797 -2.03359,-1.46698 -0.67655,-0.46736 -1.34357,-0.94742 -2.01715,-1.41922 -0.70466,-0.48452 -1.41897,-0.95699 -2.10594,-1.46702 -0.72037,-0.48506 -1.42082,-0.99682 -2.11449,-1.51888 -0.72569,-0.47567 -1.38486,-1.04114 -2.0757,-1.56357 -0.65008,-0.54476 -1.33091,-1.05045 -1.99911,-1.57249 -0.67937,-0.50625 -1.30234,-1.08216 -1.97441,-1.59728 -0.69219,-0.57097 -1.37079,-1.15672 -2.03933,-1.75502 -0.64245,-0.54976 -1.27715,-1.10875 -1.905,-1.67534 -0.65571,-0.53467 -1.28485,-1.09938 -1.9085,-1.67063 -0.60939,-0.51691 -1.2102,-1.04385 -1.81258,-1.56889 -0.60168,-0.52609 -1.20201,-1.05372 -1.80253,-1.58113 -0.45929,-0.42871 -0.95127,-0.81643 -1.44199,-1.20742 -0.39344,-0.33785 -0.79394,-0.66752 -1.20902,-0.97837 -0.27107,-0.25376 -0.58646,-0.46754 -0.87743,-0.6806 -0.29466,-0.24975 -0.56904,-0.50962 -0.85517,-0.76864 -0.25038,-0.26686 -0.42288,-0.4403 -0.73726,-0.8358 -5.80478,-9.0865 3.62862,-12.46952 8.9179,-10.99898 0.61876,0.20308 1.22564,0.43302 1.8422,0.63623 0.40207,0.0775 0.76994,0.26315 1.16463,0.36649 0.4189,0.0768 0.81967,0.23025 1.23317,0.34316 0.64303,0.19526 1.23735,0.5129 1.87466,0.72327 0.63904,0.2881 1.30486,0.50459 1.9424,0.79655 0.74813,0.28052 1.47149,0.61644 2.18457,0.97622 0.87879,0.44519 1.72838,0.94402 2.58031,1.43773 0.94716,0.53935 1.84321,1.15985 2.73423,1.78572 0.93364,0.67526 1.83289,1.39592 2.73644,2.11046 0.9059,0.7208 1.80053,1.4565 2.68356,2.20512 0.90895,0.7397 1.79747,1.50381 2.68496,2.26911 0.90266,0.7603 1.78983,1.53874 2.69235,2.29919 0.94816,0.77861 1.88025,1.57632 2.82095,2.36379 0.97491,0.81015 1.94187,1.62984 2.93081,2.42301 1.02805,0.82251 2.06036,1.63997 3.09844,2.44976 1.07064,0.86177 2.17468,1.68008 3.26789,2.5126 1.12011,0.87307 2.26225,1.71681 3.40375,2.56147 1.17105,0.8549 2.33806,1.71553 3.50343,2.57829 1.13609,0.82623 2.25732,1.67218 3.40509,2.48243 1.1093,0.79323 2.21874,1.58586 3.33627,2.36744 1.07587,0.73959 2.14641,1.48774 3.23218,2.21282 1.07456,0.70713 2.13225,1.43897 3.21536,2.13336 1.05198,0.68099 2.11025,1.35121 3.17454,2.01283 1.04836,0.68371 2.11486,1.3406 3.19034,1.98081 1.05715,0.61784 2.10437,1.25182 3.15589,1.87918 0.97181,0.56776 1.96028,1.10324 2.95937,1.62057 0.99121,0.50486 1.9886,0.99708 2.98425,1.49308 0.91979,0.47132 1.87511,0.8621 2.82515,1.26614 0.90472,0.34494 1.80338,0.71945 2.72858,1.00674 0.82889,0.29505 1.67525,0.52943 2.5406,0.68624 0.82632,0.15929 1.65709,0.30615 2.49618,0.37686 0.78126,0.10156 1.57586,0.0892 2.36166,0.0574 1.42219,-0.11605 0.58539,-0.0371 -2.86135,-0.0517 -0.14124,-6e-4 0.28244,0.006 0.42362,0.0102 0.38542,0.0116 0.76246,0.0246 1.14816,0.0121 0.78618,-0.0212 1.57294,-0.0843 2.35312,-0.18477 0.72133,-0.0813 1.44012,-0.19556 2.14931,-0.35096 0.5736,-0.10817 1.14232,-0.24083 1.70136,-0.40875 0.5658,-0.17862 1.10079,-0.44269 1.63089,-0.70668 0.55786,-0.30846 1.10353,-0.63436 1.61769,-1.01141 0.55632,-0.38988 1.068,-0.83646 1.56734,-1.29564 0.51938,-0.48305 1.03163,-0.97379 1.52542,-1.48304 0.56444,-0.59685 1.0684,-1.24564 1.58512,-1.88312 0.54432,-0.85652 12.6573,6.84138 12.11298,7.6979 l 0,0 c -0.65132,0.82575 -1.30705,1.64945 -1.99051,2.44876 -0.66308,0.77187 -1.35204,1.52092 -2.08628,2.22613 -0.76527,0.75121 -1.5316,1.50346 -2.3555,2.19116 -0.85411,0.69611 -1.70711,1.39773 -2.64304,1.9836 -0.96461,0.63907 -1.96135,1.22558 -2.99594,1.74507 -1.05843,0.51378 -2.13937,0.98069 -3.26839,1.31889 -1.03625,0.29743 -2.07311,0.59185 -3.13012,0.80862 -1.10342,0.2108 -2.20715,0.41602 -3.32329,0.54964 -2.40122,0.26213 -4.81801,0.43075 -7.2358,0.15396 -1.23473,-0.11702 -2.46345,-0.26978 -3.68036,-0.51565 -1.20155,-0.25014 -2.40274,-0.50635 -3.57872,-0.86173 -1.18779,-0.37111 -2.36261,-0.7814 -3.52497,-1.22603 -1.1322,-0.45685 -2.27288,-0.89369 -3.37764,-1.41562 -1.11839,-0.50525 -2.21701,-1.05219 -3.31252,-1.60506 -1.09673,-0.54879 -2.18887,-1.10753 -3.2654,-1.69513 -1.14674,-0.63163 -2.27803,-1.29165 -3.39873,-1.96837 -1.08389,-0.64692 -2.17313,-1.28476 -3.24751,-1.9475 -1.10812,-0.68967 -2.21292,-1.3843 -3.31536,-2.08294 -1.12582,-0.71375 -2.24223,-1.44237 -3.35769,-2.17216 -1.12261,-0.75198 -2.24502,-1.50433 -3.36298,-2.26315 -1.12549,-0.77736 -2.25768,-1.54502 -3.37356,-2.3362 -1.15083,-0.81213 -2.29418,-1.63487 -3.43982,-2.4543 -1.17221,-0.85738 -2.34158,-1.71859 -3.51323,-2.57671 -1.1842,-0.86973 -2.36669,-1.74181 -3.54467,-2.61991 -1.17341,-0.87968 -2.33512,-1.77457 -3.49866,-2.66723 -1.14386,-0.87488 -2.27382,-1.76727 -3.39936,-2.66557 -1.08699,-0.86846 -2.17957,-1.73006 -3.24551,-2.62452 -1.01641,-0.85142 -2.03344,-1.7021 -3.04217,-2.56261 -0.94816,-0.80976 -1.91232,-1.60071 -2.85124,-2.42136 -0.89411,-0.77434 -1.7986,-1.53656 -2.69257,-2.31108 -0.85169,-0.72352 -1.71192,-1.43671 -2.57074,-2.1517 -0.8021,-0.65423 -1.59563,-1.3189 -2.4194,-1.94619 -0.6929,-0.53568 -1.38865,-1.06969 -2.13107,-1.53609 -0.64551,-0.41392 -1.31139,-0.79344 -1.98488,-1.15992 -0.57991,-0.31671 -1.16696,-0.62297 -1.78173,-0.86742 -0.58657,-0.22681 -1.17362,-0.45 -1.75088,-0.70015 -0.53866,-0.17509 -1.04801,-0.43117 -1.58944,-0.59613 -0.38663,-0.15617 -0.76812,-0.2669 -1.17616,-0.34635 -0.45864,-0.146 -0.91189,-0.271 -1.36284,-0.43478 -0.31859,-0.1114 -0.64781,-0.14866 -0.96595,-0.27294 -0.0789,-0.0181 -0.63709,-0.0447 0.0215,0.18207 5.77013,2.75113 10.29793,-5.91565 7.28952,-10.79449 -0.26197,-0.51909 0.107,0.14509 -0.10326,-0.22791 0.16411,0.1172 0.29654,0.21823 0.41431,0.25516 0.35879,0.30444 0.73539,0.58804 1.10831,0.87447 0.45371,0.36901 0.90518,0.74004 1.3639,1.10264 0.59149,0.48883 1.16324,1.00047 1.74554,1.50016 0.59979,0.52059 1.19963,1.04113 1.79912,1.56207 0.64427,0.56033 1.29441,1.11423 1.92402,1.69114 0.62527,0.54456 1.26492,1.07288 1.87498,1.63484 0.60997,0.5317 1.22089,1.06211 1.83127,1.59329 0.56351,0.47544 1.13625,0.94044 1.71403,1.39842 0.60673,0.50505 1.23249,0.9848 1.85854,1.46552 0.64112,0.4987 1.2716,1.0111 1.92221,1.49727 0.61404,0.47525 1.26488,0.8992 1.88344,1.36865 0.66368,0.46647 1.34018,0.91486 1.99487,1.39429 0.70912,0.46864 1.39851,0.96654 2.09305,1.45615 0.70621,0.50226 1.41707,0.99747 2.11468,1.51178 0.70006,0.50975 1.40399,1.01371 2.09799,1.53179 0.71744,0.52439 1.42638,1.05967 2.12858,1.60432 0.72427,0.56662 1.46589,1.11155 2.16396,1.71133 0.71408,0.58275 1.42843,1.16596 2.12076,1.77439 0.72736,0.65172 1.45826,1.29984 2.15354,1.98622 0.66103,0.62823 1.32305,1.25566 1.97077,1.89764 0.63843,0.6074 1.26796,1.224 1.89552,1.84262 0.63781,0.61683 1.24316,1.2657 1.88015,1.8833 0.63695,0.63173 1.27467,1.26299 1.89559,1.91055 0.62038,0.62509 1.22096,1.26984 1.82429,1.91133 0.56332,0.62227 1.1301,1.24161 1.70668,1.85162 0.57348,0.62975 1.1645,1.24332 1.72769,1.88241 0.52496,0.58342 1.04561,1.17079 1.57658,1.74875 0.54172,0.57407 1.05993,1.16939 1.5897,1.75435 0.5403,0.58096 1.05031,1.18862 1.57608,1.78262 0.56042,0.63484 1.11048,1.27837 1.62847,1.94872 0.5117,0.66038 1.03554,1.3114 1.52195,1.99113 0.51587,0.72552 1.04569,1.44196 1.51578,2.19878 0.5217,0.82214 1.02276,1.6586 1.44506,2.53706 0.43021,0.87521 0.8278,1.76743 1.14995,2.68868 0.32073,0.91135 0.59637,1.83758 0.80561,2.7813 0.19687,0.8935 0.36734,1.79317 0.46427,2.70369 0.10197,0.904 0.16813,1.81166 0.16787,2.72197 0.004,0.86916 -0.0108,1.73908 -0.0853,2.60558 -0.0764,0.85935 -0.17909,1.71676 -0.33464,2.56574 -0.16721,0.91242 -0.36554,1.81982 -0.63231,2.7089 -0.27186,0.85768 -0.55075,1.7131 -0.89648,2.54464 -0.3605,0.8302 -0.72821,1.65661 -1.15402,2.45606 -0.43199,0.79382 -0.8815,1.57681 -1.38072,2.33075 -0.5027,0.79028 -1.03746,1.55709 -1.60461,2.30273 -0.55653,0.72687 -1.10804,1.45824 -1.70084,2.15631 -0.60771,0.72688 -1.2348,1.43808 -1.89294,2.11985 -0.65996,0.69006 -1.34177,1.35923 -2.03672,2.01398 -0.75657,0.68351 -1.50089,1.38377 -2.30615,2.01033 -0.79301,0.62577 -1.61104,1.21728 -2.44153,1.79231 -0.8694,0.56846 -1.69906,1.197 -2.5999,1.71753 -0.89142,0.54847 -1.81147,1.04359 -2.72848,1.54722 -0.9391,0.49824 -1.90585,0.93907 -2.88139,1.3612 -0.95841,0.37848 -1.90767,0.78033 -2.88283,1.11588 -0.96869,0.31332 -1.93016,0.64934 -2.91593,0.90797 -1.00485,0.25812 -2.00497,0.53589 -3.01965,0.75393 -0.94741,0.16447 -1.89583,0.31619 -2.84488,0.47196 -0.96226,0.12401 -1.92233,0.26702 -2.89299,0.30971 -2.13538,0.18478 -4.28849,0.12531 -6.42798,0.032 -0.92569,-0.0781 -1.85109,-0.15043 -2.77529,-0.24513 -0.9166,-0.0797 -1.83547,-0.1596 -2.73998,-0.33381 -1.0268,-0.17829 -2.0412,-0.42122 -3.04118,-0.71481 -0.90869,-0.25304 -1.80779,-0.53344 -2.69802,-0.84594 -0.96867,-0.34738 -1.92128,-0.74047 -2.84896,-1.18647 -0.87716,-0.42787 -1.74395,-0.87753 -2.59695,-1.35183 -0.889,-0.52256 -1.75832,-1.07751 -2.59719,-1.67781 -0.80162,-0.60014 -1.60888,-1.19395 -2.36808,-1.84811 -0.77966,-0.69376 -1.55451,-1.39383 -2.27644,-2.14852 -0.71374,-0.74206 -1.41631,-1.49524 -2.07193,-2.28978 -0.69039,-0.85844 -1.3474,-1.74332 -1.96985,-2.65236 -0.60801,-0.89042 -1.19196,-1.79742 -1.73618,-2.72842 -0.54877,-0.93218 -1.08303,-1.87341 -1.56896,-2.84019 -0.48724,-0.96605 -0.95098,-1.94376 -1.39235,-2.93165 -0.4429,-1.03 -0.85871,-2.07114 -1.25284,-3.12081 -0.38667,-1.05374 -0.76095,-2.11214 -1.10483,-3.18073 -0.34438,-1.08786 -0.67005,-2.18186 -0.9629,-3.28482 -0.29062,-1.12408 -0.56805,-2.25178 -0.80822,-3.38787 -0.24227,-1.16408 -0.45934,-2.33328 -0.63253,-3.50983 -0.16688,-1.14617 -0.32362,-2.2939 -0.4451,-3.44591 -0.119,-1.15816 -0.22757,-2.31757 -0.28338,-3.48081 -0.0603,-1.16475 -0.10611,-2.33069 -0.10333,-3.49724 0.004,-1.14489 0.0259,-2.29023 0.081,-3.43385 0.0563,-1.13052 0.13627,-2.25949 0.23373,-3.38723 0.0992,-1.10841 0.22161,-2.21456 0.34667,-3.32032 0.13398,-1.14538 0.29358,-2.28732 0.48111,-3.42525 0.18367,-1.09165 0.40045,-2.17733 0.6242,-3.26143 0.22918,-1.0689 0.49036,-2.13061 0.77095,-3.18718 0.26016,-0.96619 0.53165,-1.92929 0.8204,-2.88736 0.28908,-0.95997 0.58476,-1.91809 0.9052,-2.86813 0.33926,-0.99225 0.68695,-1.98216 1.08324,-2.95338 0.39334,-0.90659 0.79059,-1.81207 1.23281,-2.69619 0.44154,-0.86987 0.90552,-1.72801 1.42689,-2.55321 0.50469,-0.79397 1.02189,-1.5798 1.57937,-2.33808 0.57485,-0.75473 1.18518,-1.48033 1.89784,-2.11033 0.57971,-0.50088 1.12696,-1.03771 1.72234,-1.52084 0.85992,-0.70341 1.76503,-1.36155 2.79675,-1.79261 0.727,-0.30647 1.47746,-0.58339 2.2567,-0.72135 0.95755,-0.31468 5.40774,13.2272 4.45018,13.54188 z"
       inkscape:connector-curvature="0" />
    <path
       style="fill:#800000"
       id="path3463"
       d="m 579.63523,433.25174 c -0.0455,-0.0789 -0.37959,0.22914 -0.53398,0.36577 -0.34979,0.30094 -0.67271,0.63044 -1.01089,0.9437 -0.3024,0.27062 -0.61459,0.53001 -0.92564,0.79057 0.41387,-0.582 0.76314,-1.3555 1.00092,-2.09403 0.14018,-0.45964 0.15716,-0.96165 0.19618,-1.42451 0.12522,0.31724 0.27764,0.62041 0.41662,0.93242 0.32144,0.6424 0.66815,1.27077 1.02103,1.89643 0.51444,0.8996 1.0428,1.79102 1.58403,2.67474 0.64548,1.02684 1.28935,2.05478 1.94491,3.07524 0.67757,1.08245 1.36738,2.15712 2.09317,3.20797 0.75494,1.1153 1.51245,2.22891 2.28886,3.3294 0.81393,1.16683 1.62021,2.33923 2.44165,3.50076 0.81591,1.17671 1.63834,2.34893 2.47028,3.51437 0.83461,1.18699 1.68213,2.36483 2.51181,3.5553 0.85418,1.22785 1.71207,2.45332 2.55816,3.68678 0.89278,1.26821 1.76696,2.54908 2.64818,3.8253 0.91626,1.33963 1.81907,2.68859 2.74752,4.01982 0.93234,1.36785 1.86693,2.73412 2.80038,4.10124 0.9116,1.31948 1.83676,2.62937 2.75899,3.94139 0.88934,1.28445 1.80939,2.54694 2.72737,3.81092 0.87619,1.21061 1.78588,2.3962 2.69164,3.58467 0.87769,1.12935 1.77704,2.24142 2.67958,3.35091 0.91051,1.10802 1.84818,2.19346 2.77784,3.28541 0.93533,1.0846 1.88455,2.157 2.83215,3.23092 0.97478,1.06802 1.94396,2.14101 2.90528,3.22117 0.95373,1.07746 1.9329,2.13182 2.89539,3.20134 0.94885,1.04986 1.92458,2.07451 2.88643,3.11239 0.96661,1.02409 1.9321,2.04926 2.89083,3.08077 0.93901,1.01046 1.88073,2.01842 2.8254,3.02359 0.95901,0.9885 1.88568,2.00752 2.82798,3.01184 0.92876,0.99745 1.85426,1.99764 2.77292,3.0045 0.89634,0.97437 1.77788,1.96237 2.67696,2.93422 0.85721,0.92243 1.69963,1.85888 2.57108,2.76793 0.82455,0.88214 1.62728,1.78457 2.47996,2.63987 0.61249,0.81344 -10.8913,9.47532 -11.50379,8.66188 l 0,0 c -0.86548,-0.91762 -1.72314,-1.84258 -2.58939,-2.75948 -0.89326,-0.96457 -1.78863,-1.92719 -2.67636,-2.89686 -0.88311,-0.97406 -1.77362,-1.94143 -2.66159,-2.91107 -0.90046,-0.9712 -1.80855,-1.93528 -2.71201,-2.90367 -0.94333,-1.00659 -1.88704,-2.01275 -2.83505,-3.01496 -0.94254,-1.00965 -1.88569,-2.01874 -2.83083,-3.02596 -0.97319,-1.03255 -1.94723,-2.0643 -2.91571,-3.10127 -1.00375,-1.07304 -2.0006,-2.15234 -2.98431,-3.24384 -0.98575,-1.07989 -1.96421,-2.16638 -2.93787,-3.25719 -0.98821,-1.09603 -1.98112,-2.18792 -2.95716,-3.29484 -0.99532,-1.12791 -1.98425,-2.26148 -2.95887,-3.40735 -0.99091,-1.16465 -1.97768,-2.33301 -2.93432,-3.52613 -0.97701,-1.20776 -1.94463,-2.42342 -2.88516,-3.6599 -0.95873,-1.25927 -1.90818,-2.5256 -2.83533,-3.80838 -0.95664,-1.31192 -1.89806,-2.63464 -2.83061,-3.96381 -0.95897,-1.35664 -1.90625,-2.72149 -2.84786,-4.09024 -0.92741,-1.35435 -1.84903,-2.71266 -2.78054,-4.06419 -0.91872,-1.34873 -1.83071,-2.70204 -2.75005,-4.05035 -0.86601,-1.27246 -1.74088,-2.53874 -2.61364,-3.80657 -0.83366,-1.20249 -1.66302,-2.40796 -2.5029,-3.60612 -0.82572,-1.16917 -1.65237,-2.33769 -2.48186,-3.50419 -0.83697,-1.18924 -1.67077,-2.38068 -2.50134,-3.5744 -0.81913,-1.18003 -1.64267,-2.35697 -2.45592,-3.54108 -0.79706,-1.16203 -1.58615,-2.32949 -2.36953,-3.50079 -0.7634,-1.16068 -1.50801,-2.33346 -2.24449,-3.51138 -0.69714,-1.11839 -1.39792,-2.2348 -2.06496,-3.37154 -0.61412,-1.05446 -1.21814,-2.11519 -1.78533,-3.1958 -0.53145,-1.03309 -1.03931,-2.07995 -1.45454,-3.1661 -0.37676,-1.00946 -0.71093,-2.03632 -0.903,-3.09904 -0.23887,-1.47346 -0.29371,-2.9611 0.0966,-4.41839 0.45841,-1.4513 1.08546,-2.82867 2.2059,-3.89637 0.27499,-0.23223 0.54878,-0.46602 0.82959,-0.69122 0.27102,-0.20053 0.52534,-0.4215 0.76594,-0.6638 0.45684,-0.43097 0.90553,-0.86974 1.3686,-1.29384 0.71101,-0.7131 10.79575,9.34204 10.08474,10.05513 z"
       inkscape:connector-curvature="0" />
    <path
       style="fill:#800000"
       id="path3465"
       d="m 607.00424,493.31616 c -0.46184,-0.69497 -0.84084,-1.43394 -1.17521,-2.197 -0.29581,-0.69146 -0.5335,-1.40526 -0.7554,-2.12318 -0.24733,-0.77944 -0.41031,-1.58139 -0.56941,-2.38241 -0.14367,-0.72848 -0.27219,-1.45978 -0.39349,-2.19228 -0.1286,-0.884 -0.21984,-1.77278 -0.30994,-2.66134 -0.10582,-0.96068 -0.15952,-1.92579 -0.21465,-2.89038 -0.0584,-1.08835 -0.11424,-2.17684 -0.14828,-3.26624 -0.0387,-1.28433 -0.041,-2.56907 -0.0378,-3.85383 0.0205,-1.39127 0.0608,-2.7822 0.10173,-4.17299 0.0386,-1.36664 0.0768,-2.73329 0.11164,-4.10003 0.0495,-1.42054 0.11118,-2.84062 0.17332,-4.26065 0.0604,-1.39024 0.11614,-2.78056 0.19661,-4.16981 0.0771,-1.33608 0.15818,-2.67191 0.23479,-4.00802 0.0693,-1.356 0.15578,-2.71085 0.25082,-4.06526 0.0945,-1.32234 0.18445,-2.64499 0.27728,-3.96745 0.0826,-1.33283 0.19358,-2.66358 0.30651,-3.99411 0.10021,-1.24091 0.21612,-2.48059 0.30332,-3.72251 0.0804,-1.21152 0.14536,-2.42399 0.21465,-3.63617 0.0737,-1.13908 0.1246,-2.27916 0.16551,-3.41981 0.0362,-1.09377 0.071,-2.18749 0.0851,-3.28178 0.01,-1.04995 0.018,-2.09975 0.001,-3.14965 -0.0323,-1.02189 -0.0806,-2.0432 -0.12464,-3.06463 -0.0581,-0.99599 -0.12629,-1.99137 -0.19206,-2.98688 -0.0567,-0.89826 -0.1458,-1.79416 -0.22975,-2.69019 -0.0722,-0.65031 -0.15747,-1.29843 -0.27267,-1.94246 -0.0848,-0.43421 -0.20814,-0.85656 -0.33904,-1.27842 -0.11338,-0.35901 -0.23597,-0.71511 -0.37792,-1.06388 -0.0761,-0.18984 -0.17606,-0.36678 -0.27357,-0.54544 0.0261,0.20591 0.0649,0.24884 0.24552,0.56442 3.11812,5.0779 6.82514,0.99665 12.05517,-0.90947 0.257,-0.68741 0.37973,-1.4066 0.4251,-2.13616 0.0173,0.24372 0.0463,0.41897 0.0764,0.73355 0.0565,0.58587 0.0976,1.17307 0.13737,1.76027 0.0642,0.6062 0.11813,1.21341 0.17229,1.82057 0.0675,0.74841 0.12403,1.49774 0.1812,2.24699 0.0561,0.76369 0.10998,1.52752 0.16236,2.29147 0.0444,0.79118 0.12378,1.57962 0.19261,2.36889 0.0697,0.92299 0.16982,1.84317 0.25891,2.7644 0.11769,1.0229 0.22758,2.04668 0.3371,3.07048 0.10678,1.0213 0.24114,2.03955 0.36584,3.0588 0.13351,1.07593 0.26037,2.15267 0.3817,3.23004 0.1222,1.07548 0.23445,2.15204 0.34782,3.22847 0.11048,1.0573 0.21607,2.1151 0.31832,3.17322 0.10369,1.05428 0.20134,2.10913 0.29711,3.16415 0.10268,1.11514 0.16357,2.23372 0.22711,3.35164 0.0619,1.05775 0.1159,2.11593 0.17237,3.17398 0.054,1.03575 0.10619,2.0716 0.15652,3.10754 0.0625,0.96519 0.13462,1.92972 0.20286,2.89452 0.0566,0.79304 0.1538,1.58157 0.25697,2.36957 0.0812,0.69061 0.20572,1.37457 0.33104,2.05819 0.0843,0.49643 0.20956,0.98401 0.35171,1.46645 0.11632,0.4356 0.27619,0.85536 0.42978,1.2784 0.12354,0.21786 0.23219,0.44972 0.3861,0.64928 0.17045,0.28768 0.39884,0.53233 0.59872,0.79951 0.23765,0.2895 0.50617,0.54893 0.76373,0.82007 0.28761,0.22754 0.55791,0.47672 0.85514,0.69243 0.35121,0.27608 0.71105,0.54502 1.0904,0.78178 0.36022,0.27391 0.78338,0.43957 1.17717,0.65573 0.537,0.24143 1.04294,0.54178 1.57712,0.78886 0.57795,0.28791 1.17794,0.52816 1.7692,0.78691 0.62866,0.27246 1.26813,0.51552 1.90679,0.76283 0.69344,0.26257 1.40216,0.48276 2.08724,0.76626 0.7159,0.27529 1.43314,0.54648 2.16104,0.78851 0.70233,0.23988 1.40877,0.46874 2.12026,0.68008 0.72514,0.23509 1.45945,0.43918 2.19173,0.65029 0.6794,0.19409 1.37877,0.29459 2.07164,0.43083 0.86876,0.15488 1.72164,0.3793 2.58665,0.55432 0.87896,0.18011 1.76124,0.34196 2.6455,0.4937 0.98799,0.20152 1.97814,0.3917 2.96919,0.57871 1.07441,0.22284 2.14098,0.48008 3.21427,0.70789 1.09592,0.25679 2.20157,0.47925 3.29217,0.7588 1.11531,0.2504 2.21576,0.55906 3.3242,0.83673 1.08133,0.2831 2.15701,0.58662 3.2411,0.8597 1.02293,0.26578 2.05104,0.51034 3.0828,0.73926 1.05137,0.24218 2.10815,0.4606 3.16536,0.6756 1.0729,0.22282 2.14772,0.43617 3.22248,0.64976 1.00589,0.17945 2.01717,0.33163 3.02728,0.48707 0.99955,0.1724 2.00288,0.30568 3.01007,0.41979 0.98784,0.0952 1.96866,0.26645 2.96001,0.31991 0.98957,0.0728 1.97816,0.15811 2.96688,0.24149 0.95502,0.10124 1.9134,0.12597 2.87201,0.16625 0.93773,0.0717 1.87642,0.0603 2.8157,0.0738 0.96363,0.0178 1.92723,0.0373 2.89081,0.0573 0.6176,0.011 0.32169,0.0168 0.8878,-0.0122 0.98188,0.25697 -2.65223,14.14282 -3.63411,13.88585 l 0,0 c -0.73482,-0.0335 -0.38166,-0.0219 -1.0594,-0.0369 -0.98324,-0.0196 -1.9665,-0.0397 -2.94954,-0.068 -1.05821,-0.0372 -2.11389,-0.11784 -3.17124,-0.17366 -1.07237,-0.0735 -2.14134,-0.18326 -3.21244,-0.27313 -1.0637,-0.0925 -2.1278,-0.18433 -3.18791,-0.31264 -1.09246,-0.15479 -2.18972,-0.27324 -3.28141,-0.43392 -1.11606,-0.16862 -2.22759,-0.36725 -3.34239,-0.54447 -1.14663,-0.19836 -2.2926,-0.39994 -3.42879,-0.65278 -1.12171,-0.22782 -2.2422,-0.46169 -3.3605,-0.70574 -1.14027,-0.25483 -2.27897,-0.5161 -3.41325,-0.79665 -1.10874,-0.2795 -2.21566,-0.56612 -3.32099,-0.85879 -1.04916,-0.2832 -2.09905,-0.56317 -3.15589,-0.81646 -1.04068,-0.26543 -2.08945,-0.49657 -3.13468,-0.74327 -1.04473,-0.21635 -2.07935,-0.47969 -3.12535,-0.69032 -0.97615,-0.21936 -1.95702,-0.41783 -2.94136,-0.59685 -0.97848,-0.19319 -1.95368,-0.40228 -2.93605,-0.57494 -0.98274,-0.20355 -1.964,-0.41472 -2.94198,-0.64004 -0.8807,-0.2061 -1.76597,-0.38603 -2.64545,-0.59648 -0.94601,-0.23529 -1.88037,-0.50523 -2.80595,-0.81189 -0.8184,-0.25222 -1.63147,-0.52117 -2.44481,-0.78915 -0.82355,-0.28673 -1.6471,-0.57334 -2.46237,-0.88312 -0.77649,-0.29984 -1.55345,-0.59831 -2.33113,-0.89506 -0.78777,-0.26391 -1.54994,-0.60047 -2.31724,-0.91763 -0.78384,-0.33299 -1.55872,-0.68805 -2.32892,-1.05126 -0.77635,-0.36906 -1.53999,-0.7631 -2.29191,-1.17978 -0.70882,-0.40365 -1.42893,-0.78866 -2.10967,-1.23943 -0.71268,-0.45621 -1.39144,-0.96036 -2.05531,-1.4848 -0.6099,-0.49758 -1.21621,-0.99963 -1.78634,-1.54313 -0.60216,-0.58584 -1.20029,-1.17755 -1.72856,-1.83263 -0.51559,-0.61304 -1.00363,-1.24972 -1.44982,-1.91527 -0.44531,-0.65686 -0.85571,-1.33684 -1.22094,-2.0417 -0.38888,-0.78029 -0.75906,-1.57112 -1.03334,-2.40039 -0.24015,-0.68321 -0.45713,-1.37411 -0.65581,-2.07054 -0.22632,-0.82883 -0.42286,-1.66574 -0.57759,-2.51108 -0.16673,-0.8782 -0.32221,-1.75843 -0.43732,-2.64514 -0.14512,-1.03552 -0.26787,-2.07406 -0.35143,-3.11654 -0.0791,-1.05612 -0.16024,-2.11222 -0.22191,-3.16953 -0.0524,-1.02299 -0.10445,-2.04599 -0.15951,-3.06884 -0.0548,-1.03841 -0.11399,-2.07658 -0.17183,-3.11482 -0.0586,-0.98995 -0.11127,-1.98058 -0.20235,-2.96823 -0.091,-1.02048 -0.18557,-2.04065 -0.2868,-3.06017 -0.10407,-1.03168 -0.20562,-2.06363 -0.3159,-3.09468 -0.10996,-1.04427 -0.22512,-2.08799 -0.341,-3.13162 -0.11823,-1.03435 -0.23633,-2.06872 -0.36552,-3.10177 -0.1376,-1.08985 -0.2768,-2.17965 -0.38961,-3.2724 -0.11356,-1.07611 -0.23605,-2.15135 -0.33588,-3.22886 -0.0863,-0.9661 -0.17482,-1.93206 -0.24237,-2.8997 -0.065,-0.85147 -0.13414,-1.70269 -0.1797,-2.55549 -0.047,-0.7332 -0.0965,-1.46623 -0.15235,-2.19882 -0.0505,-0.7019 -0.10488,-1.40352 -0.16013,-2.10506 -0.0585,-0.70585 -0.12332,-1.41125 -0.17022,-2.11801 -0.0267,-0.49359 -0.0554,-0.98706 -0.0873,-1.48035 -0.0372,-0.50652 -0.0763,-1.01331 -0.0768,-1.52155 -0.007,-1.33543 0.20213,-2.65019 0.73211,-3.88474 7.19109,-2.94914 8.88324,-6.44308 12.85326,-1.06595 0.39214,0.5973 0.77298,1.20226 1.06318,1.85747 0.24622,0.51984 0.47352,1.04864 0.67694,1.58675 0.23445,0.62958 0.45708,1.26359 0.6502,1.90725 0.25416,0.8614 0.474,1.73277 0.63389,2.61702 0.17086,0.94967 0.31177,1.9048 0.41731,2.86402 0.10892,1.02057 0.2138,2.04188 0.28132,3.06618 0.0781,1.09244 0.15788,2.18484 0.21678,3.27852 0.0522,1.13946 0.10787,2.27888 0.13849,3.41917 0.0164,1.15173 0.015,2.30345 0.005,3.45526 -0.009,1.18603 -0.042,2.37143 -0.0815,3.55683 -0.0372,1.22926 -0.0877,2.45776 -0.16045,3.68548 -0.067,1.2701 -0.13622,2.54011 -0.21616,3.80948 -0.0891,1.29907 -0.20173,2.59638 -0.30743,3.89419 -0.10437,1.26915 -0.21407,2.53793 -0.28911,3.80927 -0.0881,1.33264 -0.1807,2.66498 -0.27631,3.99711 -0.0925,1.30107 -0.17648,2.60252 -0.24254,3.90524 -0.0764,1.33191 -0.15263,2.66383 -0.2313,3.9956 -0.0728,1.33493 -0.12634,2.67064 -0.17941,4.00648 -0.0566,1.35478 -0.12038,2.70927 -0.16997,4.06432 -0.038,1.37553 -0.0752,2.75108 -0.11534,4.12655 -0.0367,1.30863 -0.0807,2.61706 -0.11267,3.92583 -0.0167,1.15024 -0.028,2.30044 -0.003,3.4507 0.0163,0.98749 0.0593,1.97437 0.0984,2.96118 0.0332,0.77433 0.068,1.54885 0.15098,2.31981 0.0603,0.63499 0.11851,1.27066 0.20509,1.90269 0.0944,0.58955 0.19558,1.17797 0.31311,1.76342 0.0776,0.38132 0.15281,0.76328 0.28054,1.13191 0.0732,0.22357 0.14256,0.4528 0.25787,0.65882 -0.0669,-0.25551 0.0635,0.0102 -0.0492,-0.25434 0.53254,0.85359 -11.53892,8.38481 -12.07146,7.53123 z"
       inkscape:connector-curvature="0" />
  </g>
</svg>
